<?xml version="1.0" encoding="UTF-8"?>
<svg version="1.1" xmlns="http://www.w3.org/2000/svg" width="1080" height="1080">
<path d="M0 0 C356.4 0 712.8 0 1080 0 C1080 356.4 1080 712.8 1080 1080 C723.6 1080 367.2 1080 0 1080 C0 723.6 0 367.2 0 0 Z " fill="#5CE0E5" transform="translate(0,0)"/>
<path d="M0 0 C3.11083281 1.35362926 4.87781625 2.7565677 7.00390625 5.3828125 C10.07559816 9.01306841 13.33052979 12.40534861 16.71484375 15.7421875 C17.21932037 16.24099426 17.723797 16.73980103 18.24356079 17.25372314 C20.3442172 19.3273275 22.44903557 21.39661839 24.55786133 23.46191406 C26.11449651 24.98853669 27.66500464 26.52117047 29.21484375 28.0546875 C30.13386475 28.95687012 31.05288574 29.85905273 31.99975586 30.78857422 C34 33 34 33 34 35 C34.99 35.33 35.98 35.66 37 36 C38.68997323 37.64302953 40.35216394 39.31471312 42 41 C43.83211314 42.51382229 45.67725221 44.0054088 47.546875 45.47265625 C49 47 49 47 49.515625 49.12109375 C49.75539063 50.05115234 49.75539063 50.05115234 50 51 C50.99 51.33 51.98 51.66 53 52 C54.68997323 53.64302953 56.35216394 55.31471312 58 57 C59.83211314 58.51382229 61.67725221 60.0054088 63.546875 61.47265625 C65 63 65 63 65.515625 65.12109375 C65.75539063 66.05115234 65.75539063 66.05115234 66 67 C66.99 67.33 67.98 67.66 69 68 C70.68997323 69.64302953 72.35216394 71.31471312 74 73 C75.79836909 74.51482493 77.61353761 76.00329729 79.44921875 77.47265625 C81.17984514 79.17712708 81.94899453 80.82792204 83 83 C84.63604196 84.37073786 86.30678061 85.70055256 88 87 C91.1008809 89.88454037 93.12629605 92.25259209 95 96 C95.99 96.33 96.98 96.66 98 97 C99.68997323 98.64302953 101.35216394 100.31471312 103 102 C104.1697407 103.14345439 105.35785538 104.26837785 106.5625 105.375 C107.39974609 106.16003906 107.39974609 106.16003906 108.25390625 106.9609375 C109.97116036 108.20718036 109.97116036 108.20718036 112.15234375 107.8515625 C113.06693359 107.43003906 113.06693359 107.43003906 114 107 C114.33 106.01 114.66 105.02 115 104 C116.66215268 102.66104368 118.32963607 101.32869858 120 100 C120.91807575 98.93545062 121.81408513 97.8514876 122.6875 96.75 C123.8321875 95.38875 123.8321875 95.38875 125 94 C125.66 94 126.32 94 127 94 C127.33 93.01 127.66 92.02 128 91 C128.639375 90.690625 129.27875 90.38125 129.9375 90.0625 C132.13766571 89.18585499 132.13766571 89.18585499 132.9375 87.125 C134.3680071 84.2639858 136.49456773 82.94171001 139 81 C139.66 80.01 140.32 79.02 141 78 C141.66 78 142.32 78 143 78 C143.33 77.01 143.66 76.02 144 75 C147 73 147 73 148.9375 73.0625 C151.85235916 74.38743598 153.02363428 76.47464381 155 79 C156.29300506 80.16778773 157.60745624 81.31207836 158.9375 82.4375 C162.40263188 85.39569592 165.14884184 88.45531689 168 92 C169.65330502 93.67992204 171.32289841 95.34383401 173 97 C174.13907029 98.13754052 175.27731415 99.27590894 176.41491699 100.41491699 C177.04562607 101.04562607 177.67633514 101.67633514 178.32615662 102.32615662 C200.41246541 124.41246541 222.49877421 146.49877421 244.58508301 168.58508301 C245.17168198 169.17135468 245.75828094 169.75762634 246.36265564 170.36166382 C247.40855899 171.40820073 248.45324888 172.45595271 249.49635315 173.50527954 C252.44953353 176.47376137 255.5228582 179.18948683 258.7421875 181.86328125 C260.67141822 183.68904112 262.35010579 185.52983671 264.07421875 187.54296875 C268.75497983 192.96441206 273.85299505 197.96127028 278.9375 203 C279.9175531 203.97502386 280.8973724 204.9502828 281.87695312 205.92578125 C284.24902313 208.28616618 286.6234086 210.64416905 289 213 C287.50158646 216.49608727 285.49776121 218.75099576 282.81667614 221.42941952 C281.49337961 222.75868919 281.49337961 222.75868919 280.14334983 224.11481279 C279.15841492 225.09404163 278.17338771 226.07317765 277.1882782 227.05223083 C276.14611372 228.09526728 275.10438879 229.13874305 274.06306678 230.18262058 C271.19712548 233.05304136 268.32497266 235.91717614 265.45178759 238.78034365 C262.35537923 241.86812794 259.26473958 244.96167664 256.17340088 248.05453491 C250.81446553 253.41451993 245.45187471 258.77082515 240.08679771 264.1246624 C232.32432218 271.87088716 224.56737194 279.62262546 216.81176136 287.37572277 C204.2219211 299.96118329 191.62761987 312.54216988 179.03051758 325.12036133 C166.80487953 337.32766532 154.58132506 349.5370494 142.3605957 361.74926758 C141.23205958 362.87701554 141.23205958 362.87701554 140.08072474 364.02754628 C136.30571703 367.79994352 132.53075077 371.57238224 128.75580537 375.34484184 C102.72685747 401.35656442 76.69348401 427.36385165 50.65559387 453.36662292 C50.09999088 453.92147759 49.54438788 454.47633225 48.97194843 455.0480007 C46.40062688 457.61584958 43.82928136 460.18367445 41.25788039 462.7514438 C40.36785946 463.64023133 39.47783854 464.52901886 38.56084728 465.44473934 C37.79527608 466.2092264 37.02970488 466.97371345 36.24093455 467.76136678 C32.14462892 471.8534657 28.05575594 475.9513636 23.99780273 480.08154297 C19.21931131 484.94130472 14.42846196 489.78867653 9.63017178 494.62888908 C6.73416044 497.55112092 3.84306247 500.47790671 0.9621582 503.41503906 C-1.83376968 506.26515928 -4.64162083 509.10300803 -7.4582653 511.93265152 C-8.52839442 513.01202702 -9.59410903 514.09579758 -10.65530586 515.18395615 C-12.13458073 516.69936189 -13.62860327 518.19855588 -15.12719727 519.69482422 C-15.97371353 520.55244354 -16.8202298 521.41006287 -17.69239807 522.29367065 C-20 524 -20 524 -22.30455017 523.76907349 C-22.86404861 523.51527924 -23.42354706 523.26148499 -24 523 C-24.103125 522.360625 -24.20625 521.72125 -24.3125 521.0625 C-24.539375 520.381875 -24.76625 519.70125 -25 519 C-25.99 518.67 -26.98 518.34 -28 518 C-28 517.34 -28 516.68 -28 516 C-28.7425 515.773125 -29.485 515.54625 -30.25 515.3125 C-33.56311379 513.73124115 -34.83619823 511.93160239 -37 509 C-38.11375 507.9171875 -38.11375 507.9171875 -39.25 506.8125 C-41 505 -41 505 -41 503 C-41.86044922 502.60941406 -41.86044922 502.60941406 -42.73828125 502.2109375 C-45.1744207 500.90661413 -47.09306786 499.42471842 -49.1875 497.625 C-49.88230469 497.03976562 -50.57710938 496.45453125 -51.29296875 495.8515625 C-53.16031318 493.82611339 -53.36325435 492.6023518 -54 490 C-54.99 489.67 -55.98 489.34 -57 489 C-57 488.34 -57 487.68 -57 487 C-58.11375 486.6596875 -58.11375 486.6596875 -59.25 486.3125 C-62.56311379 484.73124115 -63.83619823 482.93160239 -66 480 C-67.11375 478.9171875 -67.11375 478.9171875 -68.25 477.8125 C-70 476 -70 476 -70 474 C-70.99 473.67 -71.98 473.34 -73 473 C-73 472.34 -73 471.68 -73 471 C-74.11375 470.6596875 -74.11375 470.6596875 -75.25 470.3125 C-78.56311379 468.73124115 -79.83619823 466.93160239 -82 464 C-83.11375 462.9171875 -83.11375 462.9171875 -84.25 461.8125 C-86 460 -86 460 -86 458 C-86.99 457.67 -87.98 457.34 -89 457 C-89 456.34 -89 455.68 -89 455 C-89.556875 454.7525 -90.11375 454.505 -90.6875 454.25 C-93.45193405 452.75571133 -95.68453468 451.12772489 -98 449 C-98.625 446.8125 -98.625 446.8125 -99 445 C-99.99 444.67 -100.98 444.34 -102 444 C-102 443.34 -102 442.68 -102 442 C-102.86044922 441.60941406 -102.86044922 441.60941406 -103.73828125 441.2109375 C-106.1744207 439.90661413 -108.09306786 438.42471842 -110.1875 436.625 C-110.88230469 436.03976562 -111.57710937 435.45453125 -112.29296875 434.8515625 C-114.16031318 432.82611339 -114.36325435 431.6023518 -115 429 C-115.99 428.67 -116.98 428.34 -118 428 C-118 427.34 -118 426.68 -118 426 C-119.11375 425.6596875 -119.11375 425.6596875 -120.25 425.3125 C-123.56311379 423.73124115 -124.83619823 421.93160239 -127 419 C-128.11375 417.9171875 -128.11375 417.9171875 -129.25 416.8125 C-131 415 -131 415 -131 413 C-131.99 412.67 -132.98 412.34 -134 412 C-134 411.34 -134 410.68 -134 410 C-135.11375 409.6596875 -135.11375 409.6596875 -136.25 409.3125 C-139.56311379 407.73124115 -140.83619823 405.93160239 -143 403 C-144.11375 401.9171875 -144.11375 401.9171875 -145.25 400.8125 C-147 399 -147 399 -147 397 C-147.86044922 396.60941406 -147.86044922 396.60941406 -148.73828125 396.2109375 C-151.1744207 394.90661413 -153.09306786 393.42471842 -155.1875 391.625 C-155.88230469 391.03976562 -156.57710937 390.45453125 -157.29296875 389.8515625 C-159.16031318 387.82611339 -159.36325435 386.6023518 -160 384 C-160.99 383.67 -161.98 383.34 -163 383 C-163 382.34 -163 381.68 -163 381 C-164.11375 380.6596875 -164.11375 380.6596875 -165.25 380.3125 C-168.56311379 378.73124115 -169.83619823 376.93160239 -172 374 C-173.11375 372.9171875 -173.11375 372.9171875 -174.25 371.8125 C-176 370 -176 370 -176 368 C-176.99 367.67 -177.98 367.34 -179 367 C-179 366.34 -179 365.68 -179 365 C-180.11375 364.6596875 -180.11375 364.6596875 -181.25 364.3125 C-184.56311379 362.73124115 -185.83619823 360.93160239 -188 358 C-189.11375 356.9171875 -189.11375 356.9171875 -190.25 355.8125 C-192 354 -192 354 -192 352 C-192.99 351.67 -193.98 351.34 -195 351 C-195 350.34 -195 349.68 -195 349 C-195.556875 348.7525 -196.11375 348.505 -196.6875 348.25 C-199.45193405 346.75571133 -201.68453468 345.12772489 -204 343 C-204.625 340.8125 -204.625 340.8125 -205 339 C-205.99 338.67 -206.98 338.34 -208 338 C-208 337.34 -208 336.68 -208 336 C-209.11375 335.6596875 -209.11375 335.6596875 -210.25 335.3125 C-213.56311379 333.73124115 -214.83619823 331.93160239 -217 329 C-218.11375 327.9171875 -218.11375 327.9171875 -219.25 326.8125 C-221 325 -221 325 -221 323 C-221.99 322.67 -222.98 322.34 -224 322 C-224 321.34 -224 320.68 -224 320 C-225.11375 319.6596875 -225.11375 319.6596875 -226.25 319.3125 C-229.56311379 317.73124115 -230.83619823 315.93160239 -233 313 C-234.11375 311.9171875 -234.11375 311.9171875 -235.25 310.8125 C-237 309 -237 309 -237 307 C-237.99 306.67 -238.98 306.34 -240 306 C-240 305.34 -240 304.68 -240 304 C-241.11375 303.6596875 -241.11375 303.6596875 -242.25 303.3125 C-245.56311379 301.73124115 -246.83619823 299.93160239 -249 297 C-250.11375 295.9171875 -250.11375 295.9171875 -251.25 294.8125 C-253 293 -253 293 -253 291 C-253.57363281 290.73960937 -254.14726562 290.47921875 -254.73828125 290.2109375 C-257.1744207 288.90661413 -259.09306786 287.42471842 -261.1875 285.625 C-261.88230469 285.03976562 -262.57710938 284.45453125 -263.29296875 283.8515625 C-265.16031318 281.82611339 -265.36325435 280.6023518 -266 278 C-266.99 277.67 -267.98 277.34 -269 277 C-269 276.34 -269 275.68 -269 275 C-270.11375 274.6596875 -270.11375 274.6596875 -271.25 274.3125 C-274.56311379 272.73124115 -275.83619823 270.93160239 -278 268 C-279.11375 266.9171875 -279.11375 266.9171875 -280.25 265.8125 C-282 264 -282 264 -282 262 C-282.99 261.67 -283.98 261.34 -285 261 C-285 260.34 -285 259.68 -285 259 C-286.11375 258.6596875 -286.11375 258.6596875 -287.25 258.3125 C-290.56311379 256.73124115 -291.83619823 254.93160239 -294 252 C-294.7425 251.278125 -295.485 250.55625 -296.25 249.8125 C-298 248 -298 248 -298 246 C-298.57363281 245.73960937 -299.14726562 245.47921875 -299.73828125 245.2109375 C-302.1744207 243.90661413 -304.09306786 242.42471842 -306.1875 240.625 C-306.88230469 240.03976562 -307.57710937 239.45453125 -308.29296875 238.8515625 C-310.16031318 236.82611339 -310.36325435 235.6023518 -311 233 C-311.99 232.67 -312.98 232.34 -314 232 C-314 231.34 -314 230.68 -314 230 C-315.11375 229.6596875 -315.11375 229.6596875 -316.25 229.3125 C-319.56311379 227.73124115 -320.83619823 225.93160239 -323 223 C-323.7425 222.278125 -324.485 221.55625 -325.25 220.8125 C-327 219 -327 219 -327 217 C-328.32 216.34 -329.64 215.68 -331 215 C-329.6110349 210.75050664 -327.69339294 208.34076168 -324.51426697 205.2275238 C-323.82672525 204.54777901 -323.82672525 204.54777901 -323.12529379 203.85430199 C-321.59301864 202.34278481 -320.05033453 200.84235464 -318.50756836 199.34155273 C-317.40473944 198.25758546 -316.30265102 197.17286437 -315.20124817 196.08744812 C-312.83035402 193.75311985 -310.45527625 191.42316114 -308.07716179 189.0961895 C-304.31397083 185.41185002 -300.56659154 181.7117088 -296.82240295 178.0080719 C-286.17428673 167.47871388 -275.51765348 156.9583115 -264.81713867 146.48217773 C-258.9057376 140.69447896 -253.01429798 134.88723591 -247.1444388 129.05740124 C-244.03972431 125.97555788 -240.92562918 122.90473571 -237.78654289 119.85787773 C-234.83161115 116.98965394 -231.90351432 114.09653323 -228.99348259 111.18278694 C-227.92472767 110.12181117 -226.84658373 109.07019206 -225.75833511 108.02922058 C-220.57414946 103.06068028 -216.53283606 99.0682602 -215.94996643 91.57411194 C-215.97820417 90.14267145 -215.97820417 90.14267145 -216.00701237 88.68231297 C-215.99644826 84.6414177 -214.6198166 81.66219406 -213 78 C-212.34 78 -211.68 78 -211 78 C-210.773125 77.443125 -210.54625 76.88625 -210.3125 76.3125 C-208.23753357 72.65660676 -205.72136865 69.6048052 -201.6875 68.1875 C-201.130625 68.125625 -200.57375 68.06375 -200 68 C-200 67.34 -200 66.68 -200 66 C-190.60908234 63.49575529 -181.27282229 62.62806462 -172 66 C-172 66.66 -172 67.32 -172 68 C-171.4225 68.0825 -170.845 68.165 -170.25 68.25 C-167.3460664 69.21797787 -165.96259396 70.68694284 -164 73 C-164 73.66 -164 74.32 -164 75 C-163.34 75 -162.68 75 -162 75 C-162 75.66 -162 76.32 -162 77 C-161.34 77 -160.68 77 -160 77 C-158.23537317 80.08809695 -158 81.23312136 -158 85 C-157.34 85 -156.68 85 -156 85 C-156 90.94 -156 96.88 -156 103 C-156.66 103 -157.32 103 -158 103 C-158.2165625 104.670625 -158.2165625 104.670625 -158.4375 106.375 C-159 110 -159 110 -160 112 C-160.66 112 -161.32 112 -162 112 C-162.3403125 112.86625 -162.3403125 112.86625 -162.6875 113.75 C-164.35981581 116.6168271 -166.27219731 118.13711036 -169 120 C-169.99 120 -170.98 120 -172 120 C-172 120.66 -172 121.32 -172 122 C-177.13711339 125.37581737 -181.61119043 125.25892299 -187.68359375 125.10546875 C-192.00461762 126.2709746 -193.40785824 128.29485687 -196.15014648 131.7121582 C-199.2663602 135.56619526 -202.81277923 138.99703575 -206.3125 142.5 C-207.02728516 143.22703125 -207.74207031 143.9540625 -208.47851562 144.703125 C-209.16236328 145.38890625 -209.84621094 146.0746875 -210.55078125 146.78125 C-211.16606689 147.40064453 -211.78135254 148.02003906 -212.4152832 148.65820312 C-214 150 -214 150 -216 150 C-216.3242395 150.81123322 -216.3242395 150.81123322 -216.6550293 151.63885498 C-218.47043075 154.8258583 -220.93700973 157.21545112 -223.51953125 159.77832031 C-224.08231781 160.34461151 -224.64510437 160.91090271 -225.22494507 161.49435425 C-227.08247044 163.36066702 -228.94719782 165.21958718 -230.8125 167.078125 C-232.10551762 168.37248975 -233.39823822 169.66715128 -234.69067383 170.96209717 C-237.39763755 173.67200778 -240.10818211 176.37827154 -242.82128906 179.08203125 C-246.30531153 182.55463671 -249.78024903 186.03617321 -253.25257874 189.52046585 C-255.91859914 192.1936971 -258.58934468 194.86216643 -261.26156616 197.52919769 C-262.54530841 198.81160248 -263.82755756 200.09550367 -265.10830688 201.38089752 C-266.89424516 203.17189072 -268.68642648 204.95638758 -270.48046875 206.73925781 C-271.01247894 207.27531647 -271.54448914 207.81137512 -272.09262085 208.36367798 C-275.77146851 212 -275.77146851 212 -278 212 C-277.26971972 215.10128715 -277.26971972 215.10128715 -274.875 216.6875 C-272.43741332 218.64816755 -270.68467919 220.44513427 -268.6875 222.8125 C-266.30265931 225.61030012 -263.87258889 228.06820937 -261.0625 230.4375 C-258.10177299 232.9418529 -255.53650375 235.56639194 -253 238.5 C-249.89783322 242.08688033 -246.62229773 245.13168234 -243.00390625 248.18359375 C-240.05808156 250.85378572 -237.54475686 253.86117786 -234.9453125 256.86328125 C-232.66035296 259.37306613 -230.20296637 261.51501188 -227.58984375 263.671875 C-224.19461238 266.50818622 -221.293333 269.64066707 -218.5 273.0625 C-216.17773025 275.98569987 -216.17773025 275.98569987 -213.625 277.875 C-211.30386427 279.75401464 -209.60449374 281.5477523 -207.6875 283.8125 C-204.6407286 287.38480621 -201.36937304 290.43610714 -197.78515625 293.4609375 C-196 295 -196 295 -193.75 297.375 C-191.83209385 299.15591285 -190.56386069 299.63373419 -188 300 C-187.34 298.68 -186.68 297.36 -186 296 C-185.34 296 -184.68 296 -184 296 C-183.67 295.01 -183.34 294.02 -183 293 C-182.34 293 -181.68 293 -181 293 C-180.67 292.01 -180.34 291.02 -180 290 C-179.34 290 -178.68 290 -178 290 C-177.67 289.01 -177.34 288.02 -177 287 C-176.34 287 -175.68 287 -175 287 C-174.67 286.01 -174.34 285.02 -174 284 C-173.34 284 -172.68 284 -172 284 C-171.34 282.68 -170.68 281.36 -170 280 C-169.34 280 -168.68 280 -168 280 C-167.67 279.01 -167.34 278.02 -167 277 C-166.34 277 -165.68 277 -165 277 C-164.67 276.01 -164.34 275.02 -164 274 C-163.34 274 -162.68 274 -162 274 C-161.67 273.01 -161.34 272.02 -161 271 C-160.34 271 -159.68 271 -159 271 C-158.34 269.68 -157.68 268.36 -157 267 C-156.34 267 -155.68 267 -155 267 C-154.67 266.01 -154.34 265.02 -154 264 C-153.34 264 -152.68 264 -152 264 C-151.67 263.01 -151.34 262.02 -151 261 C-150.34 261 -149.68 261 -149 261 C-148.67 260.01 -148.34 259.02 -148 258 C-147.34 258 -146.68 258 -146 258 C-145.67 257.01 -145.34 256.02 -145 255 C-144.34 255 -143.68 255 -143 255 C-142.34 253.68 -141.68 252.36 -141 251 C-140.34 251 -139.68 251 -139 251 C-138.67 250.01 -138.34 249.02 -138 248 C-137.34 248 -136.68 248 -136 248 C-135.67 247.01 -135.34 246.02 -135 245 C-134.34 245 -133.68 245 -133 245 C-132.67 244.01 -132.34 243.02 -132 242 C-131.34 242 -130.68 242 -130 242 C-129.67 241.01 -129.34 240.02 -129 239 C-128.34 239 -127.68 239 -127 239 C-126.34 237.68 -125.68 236.36 -125 235 C-124.34 235 -123.68 235 -123 235 C-122.67 234.01 -122.34 233.02 -122 232 C-121.34 232 -120.68 232 -120 232 C-119.67 231.01 -119.34 230.02 -119 229 C-118.34 229 -117.68 229 -117 229 C-116.67 228.01 -116.34 227.02 -116 226 C-115.34 226 -114.68 226 -114 226 C-113.34 224.68 -112.68 223.36 -112 222 C-111.34 222 -110.68 222 -110 222 C-109.67 221.01 -109.34 220.02 -109 219 C-108.34 219 -107.68 219 -107 219 C-106.67 218.01 -106.34 217.02 -106 216 C-105.34 216 -104.68 216 -104 216 C-103.67 215.01 -103.34 214.02 -103 213 C-102.34 213 -101.68 213 -101 213 C-100.79375 212.46375 -100.5875 211.9275 -100.375 211.375 C-98.46749574 208.08021991 -95.95180616 205.40636372 -93 203 C-92.34 203 -91.68 203 -91 203 C-90.67 202.01 -90.34 201.02 -90 200 C-89.34 200 -88.68 200 -88 200 C-87.67 199.01 -87.34 198.02 -87 197 C-86.34 197 -85.68 197 -85 197 C-84.79375 196.46375 -84.5875 195.9275 -84.375 195.375 C-82.46749574 192.08021991 -79.95180616 189.40636372 -77 187 C-76.34 187 -75.68 187 -75 187 C-74.67 186.01 -74.34 185.02 -74 184 C-73.34 184 -72.68 184 -72 184 C-71.67 183.01 -71.34 182.02 -71 181 C-70.34 181 -69.68 181 -69 181 C-68.731875 180.401875 -68.46375 179.80375 -68.1875 179.1875 C-67.00082594 177.00152146 -65.90400887 175.58667406 -64 174 C-63.34 174 -62.68 174 -62 174 C-61.67 173.01 -61.34 172.02 -61 171 C-60.34 171 -59.68 171 -59 171 C-56.73830234 167.31286264 -56.36051434 163.460444 -55.875 159.25 C-55.74544922 158.20392578 -55.74544922 158.20392578 -55.61328125 157.13671875 C-55.40228154 155.42527668 -55.20024499 153.71273371 -55 152 C-54.34 152 -53.68 152 -53 152 C-52.938125 151.278125 -52.87625 150.55625 -52.8125 149.8125 C-51.7400054 146.1000187 -49.83783356 144.57384904 -47 142 C-46.360625 141.2575 -45.72125 140.515 -45.0625 139.75 C-42.44500335 137.52909375 -40.36850575 137.3062278 -37 137 C-37 136.34 -37 135.68 -37 135 C-33.17904503 133.7718359 -29.48826961 133.86714908 -25.5 133.875 C-24.1903125 133.87242187 -22.880625 133.86984375 -21.53125 133.8671875 C-18.77764076 133.97075245 -16.59647153 134.16541986 -14 135 C-14 135.66 -14 136.32 -14 137 C-13.13375 137.061875 -12.2675 137.12375 -11.375 137.1875 C-6.02444059 138.47559764 -3.16845963 141.56446389 0.1875 145.6875 C5.01437399 154.50902833 6.61883152 164.17938182 4 174 C3.34 174 2.68 174 2 174 C1.67 175.98 1.34 177.96 1 180 C0.34 180 -0.32 180 -1 180 C-1.268125 180.598125 -1.53625 181.19625 -1.8125 181.8125 C-2.99917406 183.99847854 -4.09599113 185.41332594 -6 187 C-6.66 187 -7.32 187 -8 187 C-8.33 187.99 -8.66 188.98 -9 190 C-9.99 190 -10.98 190 -12 190 C-12 190.66 -12 191.32 -12 192 C-15.75399798 193.2039337 -19.33217412 193.09877617 -23.25 193.0625 C-24.51328125 193.05347656 -25.7765625 193.04445313 -27.078125 193.03515625 C-28.04234375 193.02355469 -29.0065625 193.01195312 -30 193 C-30 193.99 -30 194.98 -30 196 C-31.32167912 197.40156269 -31.32167912 197.40156269 -33.23854065 198.93611145 C-36.85694435 201.97256102 -40.27720369 205.15473324 -43.62486267 208.48442078 C-44.13744413 208.99364126 -44.65002558 209.50286174 -45.17813981 210.02751315 C-46.84848337 211.69047969 -48.5159409 213.35630797 -50.18334961 215.0222168 C-51.3945256 216.228756 -52.60589574 217.43510033 -53.81744385 218.64126587 C-57.08597495 221.89676728 -60.35124552 225.15551898 -63.6154983 228.41530967 C-65.6560418 230.45291147 -67.69716631 232.4899295 -69.73846626 234.52677345 C-76.12927137 240.90393816 -82.51809691 247.28307611 -88.90402216 253.66512746 C-96.27023521 261.0268464 -103.64296755 268.38195387 -111.02136034 275.73146504 C-116.73293281 281.42145458 -122.43876013 287.11716322 -128.1402207 292.81728488 C-131.54311765 296.21913281 -134.94841181 299.61849646 -138.35969353 303.0119381 C-141.56167542 306.1974946 -144.75648694 309.39006833 -147.94586182 312.58824539 C-149.11837541 313.76153191 -150.29346886 314.93224665 -151.47128487 316.10021019 C-153.07587427 317.69215796 -154.67099013 319.2930301 -156.26402283 320.89653015 C-157.15975478 321.79079555 -158.05548674 322.68506094 -158.97836208 323.60642529 C-160.89600346 325.87687039 -161.64767503 327.09673627 -162 330 C-160.63875 331.11375 -160.63875 331.11375 -159.25 332.25 C-156.6975131 334.38513715 -154.22599924 336.51715469 -152 339 C-152 339.66 -152 340.32 -152 341 C-151.01 341.33 -150.02 341.66 -149 342 C-146.25233712 344.53074213 -143.86288535 347.16796544 -141.5 350.0625 C-139.17773025 352.98569987 -139.17773025 352.98569987 -136.625 354.875 C-134.28568232 356.76873336 -132.56088879 358.59341679 -130.625 360.875 C-127.76780107 364.24084314 -124.75124367 367.04627421 -121.28515625 369.7734375 C-120.86105469 370.17820312 -120.43695313 370.58296875 -120 371 C-120 371.66 -120 372.32 -120 373 C-119.01 373.33 -118.02 373.66 -117 374 C-115.28891311 375.62102968 -113.62746694 377.29503463 -112 379 C-110.7625 380.2375 -110.7625 380.2375 -109.5 381.5 C-108.2625 382.7375 -108.2625 382.7375 -107 384 C-106.154375 384.825 -105.30875 385.65 -104.4375 386.5 C-102 389 -102 389 -99.875 391.75 C-98.12568403 394.25052455 -98.12568403 394.25052455 -95 395 C-89.58187118 389.75961008 -84.19158047 384.49176536 -78.81958008 379.20410156 C-76.98958814 377.40927373 -75.15335774 375.62078337 -73.31079102 373.83886719 C-70.66050229 371.27365652 -68.03361961 368.68635425 -65.41015625 366.09375 C-64.58411392 365.30383667 -63.75807159 364.51392334 -62.90699768 363.70007324 C-57.99110351 358.85020836 -57.99110351 358.85020836 -55.97436523 352.43164062 C-55.98282471 351.29919922 -55.99128418 350.16675781 -56 349 C-55.34 349 -54.68 349 -54 349 C-53.93941406 348.37351562 -53.87882812 347.74703125 -53.81640625 347.1015625 C-53.73261719 346.28429687 -53.64882813 345.46703125 -53.5625 344.625 C-53.48128906 343.81289063 -53.40007812 343.00078125 -53.31640625 342.1640625 C-53 340 -53 340 -52 338 C-51.34 338 -50.68 338 -50 338 C-49.73703125 337.40316406 -49.4740625 336.80632812 -49.203125 336.19140625 C-45.89085636 330.15834552 -39.11609242 326.22370315 -32.6875 324.3125 C-25.45486887 323.47149638 -19.026955 324.13943508 -12 326 C-12 326.66 -12 327.32 -12 328 C-10.35 328.33 -8.7 328.66 -7 329 C-7 329.66 -7 330.32 -7 331 C-6.401875 331.28875 -5.80375 331.5775 -5.1875 331.875 C-0.2171021 334.43120463 1.03471514 336.88656004 2.6875 342 C3.01947388 343.0046228 3.01947388 343.0046228 3.3581543 344.02954102 C5.03370503 349.41233647 5.5968507 354.36307672 5 360 C4.34 360 3.68 360 3 360 C2.95101563 360.60328125 2.90203125 361.2065625 2.8515625 361.828125 C2.77679687 362.62734375 2.70203125 363.4265625 2.625 364.25 C2.55539062 365.03890625 2.48578125 365.8278125 2.4140625 366.640625 C1.60202262 371.26772015 -0.44139828 373.70311806 -3.9375 376.75 C-4.97197266 377.67039062 -4.97197266 377.67039062 -6.02734375 378.609375 C-8 380 -8 380 -11 380 C-11 380.66 -11 381.32 -11 382 C-13.31 382.33 -15.62 382.66 -18 383 C-18 383.66 -18 384.32 -18 385 C-18.7209082 384.86480957 -19.44181641 384.72961914 -20.18457031 384.59033203 C-26.69864125 384.16031026 -30.48918025 385.24334577 -35.43164062 389.40917969 C-40.42521916 394.01615774 -45.08363687 398.94100173 -49.75 403.875 C-51.41397014 405.58205971 -53.08061529 407.28651624 -54.75 408.98828125 C-57.77851375 412.10079471 -60.80326659 415.21611459 -63.78808594 418.37060547 C-64.3861908 419.00046356 -64.98429565 419.63032166 -65.6005249 420.27926636 C-67.2156508 422.05819345 -67.2156508 422.05819345 -68 425 C-67.34 425 -66.68 425 -66 425 C-64.65080468 426.65385233 -63.31866272 428.321702 -62 430 C-61.01 430.66 -60.02 431.32 -59 432 C-59 432.66 -59 433.32 -59 434 C-58.01 434.33 -57.02 434.66 -56 435 C-54.28891311 436.62102968 -52.62746694 438.29503463 -51 440 C-50.175 440.825 -49.35 441.65 -48.5 442.5 C-47.675 443.325 -46.85 444.15 -46 445 C-45.154375 445.825 -44.30875 446.65 -43.4375 447.5 C-41 450 -41 450 -39.125 452.4375 C-36.87068753 455.15593563 -34.44385263 457.2642786 -31.7421875 459.51953125 C-28.35264647 462.39988114 -25.46683158 465.29975262 -23 469 C-20.41619823 469.25030977 -20.41619823 469.25030977 -18 469 C-17.67 468.01 -17.34 467.02 -17 466 C-16.34 466 -15.68 466 -15 466 C-14.67 465.01 -14.34 464.02 -14 463 C-13.34 463 -12.68 463 -12 463 C-11.67 462.01 -11.34 461.02 -11 460 C-9.34997172 458.64613064 -7.6825613 457.31321858 -6 456 C-5.34 455.01 -4.68 454.02 -4 453 C-3.34 453 -2.68 453 -2 453 C-1.67 452.01 -1.34 451.02 -1 450 C-0.34 450 0.32 450 1 450 C1.33 449.01 1.66 448.02 2 447 C3.65002828 445.64613064 5.3174387 444.31321858 7 443 C7.66 442.01 8.32 441.02 9 440 C9.66 440 10.32 440 11 440 C11.33 439.01 11.66 438.02 12 437 C12.66 437 13.32 437 14 437 C14.33 436.01 14.66 435.02 15 434 C15.66 434 16.32 434 17 434 C17.33 433.01 17.66 432.02 18 431 C19.65002828 429.64613064 21.3174387 428.31321858 23 427 C23.66 426.01 24.32 425.02 25 424 C25.66 424 26.32 424 27 424 C27.33 423.01 27.66 422.02 28 421 C28.66 421 29.32 421 30 421 C30.33 420.01 30.66 419.02 31 418 C31.66 418 32.32 418 33 418 C33.33 417.01 33.66 416.02 34 415 C35.65002828 413.64613064 37.3174387 412.31321858 39 411 C39.66 410.01 40.32 409.02 41 408 C41.66 408 42.32 408 43 408 C43.33 407.01 43.66 406.02 44 405 C44.66 405 45.32 405 46 405 C46.33 404.01 46.66 403.02 47 402 C47.66 402 48.32 402 49 402 C49.33 401.01 49.66 400.02 50 399 C51.65002828 397.64613064 53.3174387 396.31321858 55 395 C55.66 394.01 56.32 393.02 57 392 C57.66 392 58.32 392 59 392 C59.33 391.01 59.66 390.02 60 389 C60.66 389 61.32 389 62 389 C62.33 388.01 62.66 387.02 63 386 C64.65002828 384.64613064 66.3174387 383.31321858 68 382 C68.66 381.01 69.32 380.02 70 379 C70.66 379 71.32 379 72 379 C72.33 378.01 72.66 377.02 73 376 C73.66 376 74.32 376 75 376 C75.33 375.01 75.66 374.02 76 373 C76.66 373 77.32 373 78 373 C78.33 372.01 78.66 371.02 79 370 C80.65002828 368.64613064 82.3174387 367.31321858 84 366 C84.66 365.01 85.32 364.02 86 363 C86.66 363 87.32 363 88 363 C88.33 362.01 88.66 361.02 89 360 C89.66 360 90.32 360 91 360 C91.33 359.01 91.66 358.02 92 357 C92.66 357 93.32 357 94 357 C94.33 356.01 94.66 355.02 95 354 C96.65002828 352.64613064 98.3174387 351.31321858 100 350 C100.66 349.01 101.32 348.02 102 347 C102.66 347 103.32 347 104 347 C104.33 346.01 104.66 345.02 105 344 C105.66 344 106.32 344 107 344 C107.33 343.01 107.66 342.02 108 341 C109.65002828 339.64613064 111.3174387 338.31321858 113 337 C113.66 336.01 114.32 335.02 115 334 C115.66 334 116.32 334 117 334 C117.33 333.01 117.66 332.02 118 331 C118.66 331 119.32 331 120 331 C120.33 330.01 120.66 329.02 121 328 C121.66 328 122.32 328 123 328 C123.33 327.01 123.66 326.02 124 325 C125.65002828 323.64613064 127.3174387 322.31321858 129 321 C129.66 320.01 130.32 319.02 131 318 C131.66 318 132.32 318 133 318 C133.33 317.01 133.66 316.02 134 315 C134.66 315 135.32 315 136 315 C136.33 314.01 136.66 313.02 137 312 C137.66 312 138.32 312 139 312 C139.33 311.01 139.66 310.02 140 309 C141.65002828 307.64613064 143.3174387 306.31321858 145 305 C145.66 304.01 146.32 303.02 147 302 C147.66 302 148.32 302 149 302 C149.33 301.01 149.66 300.02 150 299 C150.66 299 151.32 299 152 299 C152.33 298.01 152.66 297.02 153 296 C154.65002828 294.64613064 156.3174387 293.31321858 158 292 C158.66 291.01 159.32 290.02 160 289 C160.66 289 161.32 289 162 289 C162.33 288.01 162.66 287.02 163 286 C163.66 286 164.32 286 165 286 C165.33 285.01 165.66 284.02 166 283 C166.66 283 167.32 283 168 283 C168.33 282.01 168.66 281.02 169 280 C170.65002828 278.64613064 172.3174387 277.31321858 174 276 C174.66 275.01 175.32 274.02 176 273 C176.66 273 177.32 273 178 273 C178.33 272.01 178.66 271.02 179 270 C179.66 270 180.32 270 181 270 C181.33 269.01 181.66 268.02 182 267 C182.66 267 183.32 267 184 267 C184.33 266.01 184.66 265.02 185 264 C186.65002828 262.64613064 188.3174387 261.31321858 190 260 C190.66 259.01 191.32 258.02 192 257 C192.66 257 193.32 257 194 257 C194.33 256.01 194.66 255.02 195 254 C195.66 254 196.32 254 197 254 C197.33 253.01 197.66 252.02 198 251 C198.66 251 199.32 251 200 251 C200.33 250.01 200.66 249.02 201 248 C202.9375 245.8125 202.9375 245.8125 205 244 C205.66 244 206.32 244 207 244 C207.33 243.01 207.66 242.02 208 241 C208.66 241 209.32 241 210 241 C210.33 240.01 210.66 239.02 211 238 C211.66 238 212.32 238 213 238 C213.33 237.01 213.66 236.02 214 235 C215.65002828 233.64613064 217.3174387 232.31321858 219 231 C219.66 230.01 220.32 229.02 221 228 C221.66 228 222.32 228 223 228 C223.33 227.01 223.66 226.02 224 225 C224.66 225 225.32 225 226 225 C226.33 224.01 226.66 223.02 227 222 C227.66 222 228.32 222 229 222 C229.33 221.01 229.66 220.02 230 219 C231.62332967 217.61423077 233.28724465 216.27358732 235 215 C233.56698626 211.71990961 231.80531117 209.57023114 229.26171875 207.06640625 C228.52373047 206.33486328 227.78574219 205.60332031 227.02539062 204.84960938 C226.25388672 204.09486328 225.48238281 203.34011719 224.6875 202.5625 C223.92759766 201.81162109 223.16769531 201.06074219 222.38476562 200.28710938 C220.9114773 198.83174115 219.43628324 197.37829903 217.95898438 195.92700195 C215.62555611 193.63166929 213.31239362 191.31650089 211 189 C210.34257813 188.35417969 209.68515625 187.70835937 209.0078125 187.04296875 C205.6957243 183.77898141 202.50999726 180.48352417 199.5 176.9375 C196.52848696 173.47751906 193.30258157 170.52949962 189.8359375 167.57421875 C185.08765589 163.50281984 181.04656718 158.81918682 176.91796875 154.140625 C173.85179548 150.71850086 170.57201119 147.54601068 167.25 144.375 C165 142 165 142 164 139 C163.0925 138.7525 162.185 138.505 161.25 138.25 C157.33306486 136.74348648 156.31349876 135.12361311 154.17578125 131.65625 C152.93381367 129.69777513 152.93381367 129.69777513 150 128 C150 127.34 150 126.68 150 126 C146.59612281 127.92233767 143.81112031 129.92532395 141.02001953 132.65771484 C140.27640167 133.38211761 139.53278381 134.10652039 138.76663208 134.85287476 C137.97997162 135.63103546 137.19331116 136.40919617 136.3828125 137.2109375 C135.1579866 138.41866318 135.1579866 138.41866318 133.90841675 139.65078735 C132.18939923 141.35095324 130.47324103 143.05401438 128.75976562 144.75976562 C126.12729626 147.37272076 123.47428554 149.96360016 120.8203125 152.5546875 C119.15233334 154.20961571 117.48562181 155.86582273 115.8203125 157.5234375 C115.02150665 158.29754974 114.22270081 159.07166199 113.39968872 159.86923218 C112.67498383 160.59993927 111.95027893 161.33064636 111.20361328 162.08349609 C110.55917267 162.72064545 109.91473206 163.3577948 109.25076294 164.01425171 C107.78784785 165.94862327 107.78784785 165.94862327 107.98860168 168.40919495 C109.34686217 171.88852457 111.30831894 173.75849608 113.97875977 176.36938477 C114.75438766 177.13625107 114.75438766 177.13625107 115.54568481 177.91860962 C116.66641731 179.02415319 117.79174619 180.12505242 118.92111397 181.22177315 C120.70757239 182.95710978 122.48117276 184.7047011 124.25193787 186.45603943 C128.0110816 190.16950775 131.78563717 193.86706605 135.5625 197.5625 C139.94262319 201.84828378 144.3162169 206.14031344 148.67329216 210.44953728 C150.42255217 212.17283204 152.18340618 213.88366413 153.94496155 215.59437561 C155.01410581 216.64899273 156.08269417 217.70417379 157.15063477 218.76000977 C158.08915787 219.6775856 159.02768097 220.59516144 159.99464417 221.5405426 C162 224 162 224 162 228 C160.125 230.25 160.125 230.25 158 232 C157.34 232 156.68 232 156 232 C155.67 232.99 155.34 233.98 155 235 C153.33784732 236.33895632 151.67036393 237.67130142 150 239 C149.08192425 240.06454938 148.18591487 241.1485124 147.3125 242.25 C146.1678125 243.61125 146.1678125 243.61125 145 245 C144.34 245 143.68 245 143 245 C142.67 245.99 142.34 246.98 142 248 C141.02351983 249.02297922 140.01868662 250.01904252 139 251 C138.401875 251.78375 137.80375 252.5675 137.1875 253.375 C134.66553842 256.4013539 132.13446961 258.61507747 129 261 C128.34 261 127.68 261 127 261 C126.67 261.99 126.34 262.98 126 264 C125.195625 264.639375 124.39125 265.27875 123.5625 265.9375 C120.92851492 267.74937033 120.92851492 267.74937033 120 270.125 C119 272 119 272 116.5 272.9375 C113.75229902 273.78638336 113.75229902 273.78638336 112.6875 276.625 C112.3471875 277.800625 112.3471875 277.800625 112 279 C111.34 279 110.68 279 110 279 C110.05220703 280.37671875 110.05220703 280.37671875 110.10546875 281.78125 C110.26213488 288.88344787 110.36270657 294.64822092 107 301 C106.01 301.33 105.02 301.66 104 302 C103.31513275 303.32407669 102.65129797 304.65909241 102 306 C100.0625 308.25 100.0625 308.25 98 310 C97.01 310 96.02 310 95 310 C94.67 311.32 94.34 312.64 94 314 C85.72412732 315.97212285 77.36839233 317.23157129 69 315 C69 314.34 69 313.68 69 313 C68.236875 312.855625 67.47375 312.71125 66.6875 312.5625 C64 312 64 312 61 311 C61 310.34 61 309.68 61 309 C60.13375 308.6596875 60.13375 308.6596875 59.25 308.3125 C56.3831729 306.64018419 54.86288964 304.72780269 53 302 C53 301.01 53 300.02 53 299 C52.34 299 51.68 299 51 299 C48.78456514 289.34703384 47.01412025 278.80369202 52.29296875 269.79296875 C55.06876639 265.94681212 57.98733432 262.60281017 62 260 C62.99 260 63.98 260 65 260 C65 259.34 65 258.68 65 258 C67.31 257.67 69.62 257.34 72 257 C72 256.34 72 255.68 72 255 C72.57309906 254.99289001 73.14619812 254.98578003 73.73666382 254.97845459 C80.15172274 254.62950683 83.21402219 252.96579067 87.6015625 248.390625 C88.45166397 247.54488922 88.45166397 247.54488922 89.31893921 246.68206787 C90.50310765 245.49459943 91.67748903 244.29729707 92.84228516 243.09082031 C94.63086669 241.2439421 96.45429945 239.43768927 98.28515625 237.6328125 C99.43453657 236.47096654 100.58175316 235.30697518 101.7265625 234.140625 C102.54503159 233.33096283 102.54503159 233.33096283 103.3800354 232.50494385 C105.07500816 230.7918002 105.07500816 230.7918002 107 228 C106.81898579 222.63070155 103.61580935 219.65082929 100 216 C98.35704805 214.63755204 96.69175663 213.30135125 95 212 C93.33333333 210.33333333 91.66666667 208.66666667 90 207 C89.236875 206.443125 88.47375 205.88625 87.6875 205.3125 C87.130625 204.879375 86.57375 204.44625 86 204 C86 203.34 86 202.68 86 202 C85.01 201.67 84.02 201.34 83 201 C81.3125 198.9375 81.3125 198.9375 80 197 C75.80153165 197.50831565 73.86123114 199.79357275 70.97265625 202.734375 C70.50186142 203.20941467 70.03106659 203.68445435 69.54600525 204.17388916 C68.04429555 205.69234447 66.55333022 207.22086924 65.0625 208.75 C64.06385001 209.7637099 63.06450774 210.77673828 62.06445312 211.7890625 C60.21315177 213.66478635 58.36692122 215.54501875 56.52368164 217.42871094 C53.34420913 220.66816189 50.13894701 223.88014149 46.90234375 227.0625 C42.76316917 231.14228604 42.76316917 231.14228604 39 235.5625 C36.58825127 238.50181877 33.82835357 240.78447937 30.94140625 243.24609375 C28.79620309 245.10132211 28.79620309 245.10132211 26.5 248 C24 251 24 251 21.98828125 252.40234375 C18.00797124 255.21071329 16.26921552 256.93632398 15.04296875 261.78125 C14.48288692 265.51027393 14.19379291 269.23557274 14 273 C13.34 273 12.68 273 12 273 C11.67 274.98 11.34 276.96 11 279 C10.34 279 9.68 279 9 279 C8.9175 279.598125 8.835 280.19625 8.75 280.8125 C7.78423221 283.62932273 6.51131433 284.47799132 4 286 C3.34 286 2.68 286 2 286 C1.67 286.99 1.34 287.98 1 289 C0.01 289 -0.98 289 -2 289 C-2 289.66 -2 290.32 -2 291 C-4.85160391 291.81434143 -7.36626131 292.11881242 -10.328125 292.09765625 C-11.12734375 292.09443359 -11.9265625 292.09121094 -12.75 292.08789062 C-13.575 292.07951172 -14.4 292.07113281 -15.25 292.0625 C-16.09046875 292.05798828 -16.9309375 292.05347656 -17.796875 292.04882812 C-19.86461401 292.03707961 -21.93231624 292.01914522 -24 292 C-24 291.34 -24 290.68 -24 290 C-25.3303125 289.9071875 -25.3303125 289.9071875 -26.6875 289.8125 C-30.78106188 288.80841878 -32.17526011 287.04774567 -35 284 C-35.65355469 283.72800781 -36.30710937 283.45601562 -36.98046875 283.17578125 C-39.82109761 281.52195284 -40.41620642 279.61675082 -41.6875 276.625 C-42.31205078 275.19027344 -42.31205078 275.19027344 -42.94921875 273.7265625 C-46.14778739 265.42693086 -46.03519668 256.34679087 -43 248 C-42.34 248 -41.68 248 -41 248 C-40.938125 247.46375 -40.87625 246.9275 -40.8125 246.375 C-39.59964736 242.82973843 -37.55389074 240.7407608 -35 238 C-34.34 238 -33.68 238 -33 238 C-33 237.34 -33 236.68 -33 236 C-27.06183502 232.64956747 -22.26311745 231.27871276 -15.5 230.75 C-14.67757813 230.67265625 -13.85515625 230.5953125 -13.0078125 230.515625 C-11.00648663 230.32945515 -9.00337313 230.16266705 -7 230 C-6.56107422 228.84177734 -6.56107422 228.84177734 -6.11328125 227.66015625 C-3.93366108 222.45201122 -0.3448351 219.43013297 4 216 C4.66 215.01 5.32 214.02 6 213 C6.66 213 7.32 213 8 213 C8.33 212.01 8.66 211.02 9 210 C10.6396721 208.63360658 12.31110128 207.3050581 14 206 C15.68762851 204.3545622 17.3540349 202.68711423 19 201 C19.845625 200.175 20.69125 199.35 21.5625 198.5 C23.99456247 196.10609032 23.99456247 196.10609032 25.8125 193.625 C28.31243329 190.62508005 31.0858864 188.22860274 34.046875 185.6953125 C36.48745323 183.5768906 38.74607716 181.31483967 41 179 C41.825 178.195625 42.65 177.39125 43.5 176.5625 C45.36981005 174.6459447 47.02241847 172.76763118 48.6875 170.6875 C49.450625 169.800625 50.21375 168.91375 51 168 C51.66 168 52.32 168 53 168 C53.33 167.01 53.66 166.02 54 165 C55.66215268 163.66104368 57.32963607 162.32869858 59 161 C59.91807575 159.93545062 60.81408513 158.8514876 61.6875 157.75 C62.8321875 156.38875 62.8321875 156.38875 64 155 C64.66 155 65.32 155 66 155 C66.33 154.01 66.66 153.02 67 152 C67.9590625 151.5359375 67.9590625 151.5359375 68.9375 151.0625 C71.13766571 150.18585499 71.13766571 150.18585499 71.9375 148.125 C73.37148535 145.2570293 75.49231739 143.97032205 78 142 C79.37368345 140.36643049 80.71937515 138.7074998 82 137 C77.37182828 131.59492854 72.57831413 126.42578983 67.55175781 121.390625 C66.84354385 120.67744614 66.1353299 119.96426727 65.40565491 119.22947693 C63.09088229 116.90024218 60.77236022 114.57479084 58.453125 112.25 C57.65791191 111.45195953 56.86269882 110.65391907 56.04338837 109.83169556 C51.84754384 105.62093493 47.64889038 101.41300012 43.44775391 97.20751953 C39.10415452 92.85840031 34.76993359 88.50005651 30.43776321 84.13955688 C27.1040114 80.78723955 23.76362719 77.44159247 20.42134857 74.09777832 C18.81922572 72.49262217 17.21961216 70.8849575 15.62253571 69.27478027 C13.39888028 67.03416837 11.16606573 64.80310308 8.93066406 62.57421875 C7.93943291 61.56916542 7.93943291 61.56916542 6.92817688 60.54380798 C6.31993576 59.94113602 5.71169464 59.33846405 5.08502197 58.7175293 C4.55855198 58.18959274 4.03208199 57.66165619 3.48965836 57.11772156 C1.91045486 55.69991791 1.91045486 55.69991791 -1 56 C-2.69088222 57.97956942 -4.35830472 59.97945196 -6 62 C-6.66 62 -7.32 62 -8 62 C-8.33 62.99 -8.66 63.98 -9 65 C-9.66 65 -10.32 65 -11 65 C-11.33 65.99 -11.66 66.98 -12 68 C-13.65002828 69.35386936 -15.3174387 70.68678142 -17 72 C-17.66 72.99 -18.32 73.98 -19 75 C-19.66 75 -20.32 75 -21 75 C-21.33 75.99 -21.66 76.98 -22 78 C-22.66 78 -23.32 78 -24 78 C-24.33 78.99 -24.66 79.98 -25 81 C-26.66215268 82.33895632 -28.32963607 83.67130142 -30 85 C-30.91807575 86.06454938 -31.81408513 87.1485124 -32.6875 88.25 C-33.8321875 89.61125 -33.8321875 89.61125 -35 91 C-35.66 91 -36.32 91 -37 91 C-37.33 91.99 -37.66 92.98 -38 94 C-38.66 94 -39.32 94 -40 94 C-40.33 94.99 -40.66 95.98 -41 97 C-42.66215268 98.33895632 -44.32963607 99.67130142 -46 101 C-46.91807575 102.06454938 -47.81408513 103.1485124 -48.6875 104.25 C-49.8321875 105.61125 -49.8321875 105.61125 -51 107 C-51.66 107 -52.32 107 -53 107 C-53.33 107.99 -53.66 108.98 -54 110 C-54.66 110 -55.32 110 -56 110 C-56.33 110.99 -56.66 111.98 -57 113 C-58.66215268 114.33895632 -60.32963607 115.67130142 -62 117 C-62.91807575 118.06454938 -63.81408513 119.1485124 -64.6875 120.25 C-65.8321875 121.61125 -65.8321875 121.61125 -67 123 C-67.66 123 -68.32 123 -69 123 C-69.33 123.99 -69.66 124.98 -70 126 C-71.65788785 127.34423339 -73.32576317 128.67618483 -75 130 C-76.35827971 131.64639965 -77.69254251 133.31295807 -79 135 C-81.125 137.3125 -81.125 137.3125 -83 139 C-83.66 139 -84.32 139 -85 139 C-85.33 139.99 -85.66 140.98 -86 142 C-87.65788785 143.34423339 -89.32576317 144.67618483 -91 146 C-92.35827971 147.64639965 -93.69254251 149.31295807 -95 151 C-97.125 153.3125 -97.125 153.3125 -99 155 C-99.66 155 -100.32 155 -101 155 C-101.33 155.99 -101.66 156.98 -102 158 C-103.65788785 159.34423339 -105.32576317 160.67618483 -107 162 C-108.35827971 163.64639965 -109.69254251 165.31295807 -111 167 C-113.125 169.3125 -113.125 169.3125 -115 171 C-115.66 171 -116.32 171 -117 171 C-117.33 171.99 -117.66 172.98 -118 174 C-119.65788785 175.34423339 -121.32576317 176.67618483 -123 178 C-123.9590625 179.2065625 -123.9590625 179.2065625 -124.9375 180.4375 C-127.32755991 183.40696837 -130.07596788 185.56330656 -133 188 C-134.33827304 189.66270287 -135.67189785 191.32916181 -137 193 C-141.54054054 197 -141.54054054 197 -144 197 C-144 201.62 -144 206.24 -144 211 C-144.66 211 -145.32 211 -146 211 C-146.33 213.31 -146.66 215.62 -147 218 C-147.66 218 -148.32 218 -149 218 C-149.061875 218.5775 -149.12375 219.155 -149.1875 219.75 C-150.33503333 222.9277846 -152.29255077 224.048118 -155 226 C-155.70125 226.5775 -156.4025 227.155 -157.125 227.75 C-159 229 -159 229 -162 229 C-162 229.66 -162 230.32 -162 231 C-165.93589067 232.29146413 -169.90735132 232.14724266 -174 232.125 C-174.7115625 232.12886719 -175.423125 232.13273438 -176.15625 232.13671875 C-179.57538017 232.13033978 -182.73293006 232.07200732 -186 231 C-186 230.34 -186 229.68 -186 229 C-187.65 228.67 -189.3 228.34 -191 228 C-191 227.34 -191 226.68 -191 226 C-191.7425 225.7525 -192.485 225.505 -193.25 225.25 C-196.29534318 223.8657531 -197.91484062 222.60644923 -200 220 C-200.75 217.25 -200.75 217.25 -201 215 C-201.66 215 -202.32 215 -203 215 C-204.17700048 210.37540756 -204.11408412 205.92133538 -204.0625 201.1875 C-204.05798828 200.39923828 -204.05347656 199.61097656 -204.04882812 198.79882812 C-204.03711312 196.86585239 -204.01917998 194.93291607 -204 193 C-203.34 193 -202.68 193 -202 193 C-201.87044922 192.11248047 -201.87044922 192.11248047 -201.73828125 191.20703125 C-200.74926566 185.64495273 -199.59090153 182.63001516 -195 179 C-190.55172414 176 -190.55172414 176 -188 176 C-188 175.34 -188 174.68 -188 174 C-182.04703442 170.56559678 -175.66321844 170.86673563 -169 171 C-168.67 170.01 -168.34 169.02 -168 168 C-166.34997172 166.64613064 -164.6825613 165.31321858 -163 164 C-162.34 163.01 -161.68 162.02 -161 161 C-160.34 161 -159.68 161 -159 161 C-158.67 160.01 -158.34 159.02 -158 158 C-157.34 158 -156.68 158 -156 158 C-155.67 157.01 -155.34 156.02 -155 155 C-154.34 155 -153.68 155 -153 155 C-152.67 154.01 -152.34 153.02 -152 152 C-150.34997172 150.64613064 -148.6825613 149.31321858 -147 148 C-146.34 147.01 -145.68 146.02 -145 145 C-144.34 145 -143.68 145 -143 145 C-142.67 144.01 -142.34 143.02 -142 142 C-141.34 142 -140.68 142 -140 142 C-139.67 141.01 -139.34 140.02 -139 139 C-137.34997172 137.64613064 -135.6825613 136.31321858 -134 135 C-133.34 134.01 -132.68 133.02 -132 132 C-131.34 132 -130.68 132 -130 132 C-129.67 131.01 -129.34 130.02 -129 129 C-128.34 129 -127.68 129 -127 129 C-126.67 128.01 -126.34 127.02 -126 126 C-125.34 126 -124.68 126 -124 126 C-123.67 125.01 -123.34 124.02 -123 123 C-121.34997172 121.64613064 -119.6825613 120.31321858 -118 119 C-117.01 117.515 -117.01 117.515 -116 116 C-115.34 116 -114.68 116 -114 116 C-113.67 115.01 -113.34 114.02 -113 113 C-112.34 113 -111.68 113 -111 113 C-110.67 112.01 -110.34 111.02 -110 110 C-109.34 110 -108.68 110 -108 110 C-107.67 109.01 -107.34 108.02 -107 107 C-105.0625 104.8125 -105.0625 104.8125 -103 103 C-102.34 103 -101.68 103 -101 103 C-100.67 102.01 -100.34 101.02 -100 100 C-99.34 100 -98.68 100 -98 100 C-97.67 99.01 -97.34 98.02 -97 97 C-96.34 97 -95.68 97 -95 97 C-94.67 96.01 -94.34 95.02 -94 94 C-92.34997172 92.64613064 -90.6825613 91.31321858 -89 90 C-88.01 88.515 -88.01 88.515 -87 87 C-86.34 87 -85.68 87 -85 87 C-84.67 86.01 -84.34 85.02 -84 84 C-83.34 84 -82.68 84 -82 84 C-81.67 83.01 -81.34 82.02 -81 81 C-80.34 81 -79.68 81 -79 81 C-78.67 80.01 -78.34 79.02 -78 78 C-76.0625 75.8125 -76.0625 75.8125 -74 74 C-73.34 74 -72.68 74 -72 74 C-71.67 73.01 -71.34 72.02 -71 71 C-70.34 71 -69.68 71 -69 71 C-68.67 70.01 -68.34 69.02 -68 68 C-67.34 68 -66.68 68 -66 68 C-65.67 67.01 -65.34 66.02 -65 65 C-64.34 65 -63.68 65 -63 65 C-62.67 64.01 -62.34 63.02 -62 62 C-60.0625 59.8125 -60.0625 59.8125 -58 58 C-57.34 58 -56.68 58 -56 58 C-55.67 57.01 -55.34 56.02 -55 55 C-54.34 55 -53.68 55 -53 55 C-52.67 54.01 -52.34 53.02 -52 52 C-51.34 52 -50.68 52 -50 52 C-49.67 51.01 -49.34 50.02 -49 49 C-48.34 49 -47.68 49 -47 49 C-46.67 48.01 -46.34 47.02 -46 46 C-44.0625 43.8125 -44.0625 43.8125 -42 42 C-41.34 42 -40.68 42 -40 42 C-39.67 41.01 -39.34 40.02 -39 39 C-38.34 39 -37.68 39 -37 39 C-36.67 38.01 -36.34 37.02 -36 36 C-35.34 36 -34.68 36 -34 36 C-33.67 35.01 -33.34 34.02 -33 33 C-31.0625 30.8125 -31.0625 30.8125 -29 29 C-28.34 29 -27.68 29 -27 29 C-26.67 28.01 -26.34 27.02 -26 26 C-25.34 26 -24.68 26 -24 26 C-23.67 25.01 -23.34 24.02 -23 23 C-22.34 23 -21.68 23 -21 23 C-20.67 22.01 -20.34 21.02 -20 20 C-19.34 20 -18.68 20 -18 20 C-17.67 19.01 -17.34 18.02 -17 17 C-15.0625 14.8125 -15.0625 14.8125 -13 13 C-12.34 13 -11.68 13 -11 13 C-10.67 12.01 -10.34 11.02 -10 10 C-9.34 10 -8.68 10 -8 10 C-7.67 9.01 -7.34 8.02 -7 7 C-6.34 7 -5.68 7 -5 7 C-4.67 6.01 -4.34 5.02 -4 4 C-3.34 4 -2.68 4 -2 4 C-1.34 2.68 -0.68 1.36 0 0 Z " fill="#018038" transform="translate(541,291)"/>
<path d="M0 0 C3.11083281 1.35362926 4.87781625 2.7565677 7.00390625 5.3828125 C10.07559816 9.01306841 13.33052979 12.40534861 16.71484375 15.7421875 C17.21932037 16.24099426 17.723797 16.73980103 18.24356079 17.25372314 C20.3442172 19.3273275 22.44903557 21.39661839 24.55786133 23.46191406 C26.11449651 24.98853669 27.66500464 26.52117047 29.21484375 28.0546875 C30.13386475 28.95687012 31.05288574 29.85905273 31.99975586 30.78857422 C34 33 34 33 34 35 C34.99 35.33 35.98 35.66 37 36 C38.68997323 37.64302953 40.35216394 39.31471312 42 41 C43.83211314 42.51382229 45.67725221 44.0054088 47.546875 45.47265625 C49 47 49 47 49.515625 49.12109375 C49.75539063 50.05115234 49.75539063 50.05115234 50 51 C50.99 51.33 51.98 51.66 53 52 C54.68997323 53.64302953 56.35216394 55.31471312 58 57 C59.83211314 58.51382229 61.67725221 60.0054088 63.546875 61.47265625 C65 63 65 63 65.515625 65.12109375 C65.75539063 66.05115234 65.75539063 66.05115234 66 67 C66.99 67.33 67.98 67.66 69 68 C70.68997323 69.64302953 72.35216394 71.31471312 74 73 C75.79836909 74.51482493 77.61353761 76.00329729 79.44921875 77.47265625 C81.17984514 79.17712708 81.94899453 80.82792204 83 83 C84.63604196 84.37073786 86.30678061 85.70055256 88 87 C91.1008809 89.88454037 93.12629605 92.25259209 95 96 C95.99 96.33 96.98 96.66 98 97 C102.01544845 100.68987155 105.5014533 104.82819346 109 109 C107.22055838 112.81537933 105.06193097 115.07119646 102 118 C101.32839844 118.69222656 100.65679688 119.38445312 99.96484375 120.09765625 C98.89943359 121.19400391 98.89943359 121.19400391 97.8125 122.3125 C96.80123047 123.35857422 96.80123047 123.35857422 95.76953125 124.42578125 C94 126 94 126 92 126 C91.71125 126.5775 91.4225 127.155 91.125 127.75 C90.75375 128.4925 90.3825 129.235 90 130 C89.7525 130.70125 89.505 131.4025 89.25 132.125 C87.41897244 134.87154135 85.07483282 135.07097297 82 136 C81.38570019 135.38155212 81.38570019 135.38155212 80.75899029 134.75061035 C70.80236894 124.72779079 60.83749287 114.71324234 50.86332226 104.70788574 C46.04012386 99.86920591 41.21977822 95.02774644 36.40600586 90.1796875 C31.76387406 85.50450741 27.1139798 80.83714599 22.45919228 76.17456055 C20.68109698 74.39090532 18.90565214 72.60460398 17.132864 70.81567383 C14.65690004 68.31805768 12.17183374 65.82986178 9.68432617 63.34375 C8.94705292 62.59569092 8.20977966 61.84763184 7.45016479 61.0769043 C6.77290848 60.40377197 6.09565216 59.73063965 5.39787292 59.03710938 C4.81069079 58.44716187 4.22350866 57.85721436 3.61853313 57.24938965 C1.94498056 55.69447458 1.94498056 55.69447458 -1 56 C-2.69088222 57.97956942 -4.35830472 59.97945196 -6 62 C-6.66 62 -7.32 62 -8 62 C-8.33 62.99 -8.66 63.98 -9 65 C-9.66 65 -10.32 65 -11 65 C-11.33 65.99 -11.66 66.98 -12 68 C-13.65002828 69.35386936 -15.3174387 70.68678142 -17 72 C-17.66 72.99 -18.32 73.98 -19 75 C-19.66 75 -20.32 75 -21 75 C-21.33 75.99 -21.66 76.98 -22 78 C-22.66 78 -23.32 78 -24 78 C-24.33 78.99 -24.66 79.98 -25 81 C-26.66215268 82.33895632 -28.32963607 83.67130142 -30 85 C-30.91807575 86.06454938 -31.81408513 87.1485124 -32.6875 88.25 C-33.8321875 89.61125 -33.8321875 89.61125 -35 91 C-35.66 91 -36.32 91 -37 91 C-37.33 91.99 -37.66 92.98 -38 94 C-38.66 94 -39.32 94 -40 94 C-40.33 94.99 -40.66 95.98 -41 97 C-42.66215268 98.33895632 -44.32963607 99.67130142 -46 101 C-46.91807575 102.06454938 -47.81408513 103.1485124 -48.6875 104.25 C-49.8321875 105.61125 -49.8321875 105.61125 -51 107 C-51.66 107 -52.32 107 -53 107 C-53.33 107.99 -53.66 108.98 -54 110 C-54.66 110 -55.32 110 -56 110 C-56.33 110.99 -56.66 111.98 -57 113 C-58.66215268 114.33895632 -60.32963607 115.67130142 -62 117 C-62.91807575 118.06454938 -63.81408513 119.1485124 -64.6875 120.25 C-65.8321875 121.61125 -65.8321875 121.61125 -67 123 C-67.66 123 -68.32 123 -69 123 C-69.33 123.99 -69.66 124.98 -70 126 C-71.65788785 127.34423339 -73.32576317 128.67618483 -75 130 C-76.35827971 131.64639965 -77.69254251 133.31295807 -79 135 C-81.125 137.3125 -81.125 137.3125 -83 139 C-83.66 139 -84.32 139 -85 139 C-85.33 139.99 -85.66 140.98 -86 142 C-87.65788785 143.34423339 -89.32576317 144.67618483 -91 146 C-92.35827971 147.64639965 -93.69254251 149.31295807 -95 151 C-97.125 153.3125 -97.125 153.3125 -99 155 C-99.66 155 -100.32 155 -101 155 C-101.33 155.99 -101.66 156.98 -102 158 C-103.65788785 159.34423339 -105.32576317 160.67618483 -107 162 C-108.35827971 163.64639965 -109.69254251 165.31295807 -111 167 C-113.125 169.3125 -113.125 169.3125 -115 171 C-115.66 171 -116.32 171 -117 171 C-117.33 171.99 -117.66 172.98 -118 174 C-119.65788785 175.34423339 -121.32576317 176.67618483 -123 178 C-123.9590625 179.2065625 -123.9590625 179.2065625 -124.9375 180.4375 C-127.32755991 183.40696837 -130.07596788 185.56330656 -133 188 C-134.33827304 189.66270287 -135.67189785 191.32916181 -137 193 C-141.54054054 197 -141.54054054 197 -144 197 C-144 201.62 -144 206.24 -144 211 C-144.66 211 -145.32 211 -146 211 C-146.33 213.31 -146.66 215.62 -147 218 C-147.66 218 -148.32 218 -149 218 C-149.061875 218.5775 -149.12375 219.155 -149.1875 219.75 C-150.33503333 222.9277846 -152.29255077 224.048118 -155 226 C-155.70125 226.5775 -156.4025 227.155 -157.125 227.75 C-159 229 -159 229 -162 229 C-162 229.66 -162 230.32 -162 231 C-165.93589067 232.29146413 -169.90735132 232.14724266 -174 232.125 C-174.7115625 232.12886719 -175.423125 232.13273438 -176.15625 232.13671875 C-179.57538017 232.13033978 -182.73293006 232.07200732 -186 231 C-186 230.34 -186 229.68 -186 229 C-187.65 228.67 -189.3 228.34 -191 228 C-191 227.34 -191 226.68 -191 226 C-192.11375 225.62875 -192.11375 225.62875 -193.25 225.25 C-196.29534318 223.8657531 -197.91484062 222.60644923 -200 220 C-200.75 217.25 -200.75 217.25 -201 215 C-201.66 215 -202.32 215 -203 215 C-204.17700048 210.37540756 -204.11408412 205.92133538 -204.0625 201.1875 C-204.05573242 200.00510742 -204.05573242 200.00510742 -204.04882812 198.79882812 C-204.03711312 196.86585239 -204.01917998 194.93291607 -204 193 C-203.34 193 -202.68 193 -202 193 C-201.91363281 192.40832031 -201.82726562 191.81664062 -201.73828125 191.20703125 C-200.74926566 185.64495273 -199.59090153 182.63001516 -195 179 C-190.55172414 176 -190.55172414 176 -188 176 C-188 175.34 -188 174.68 -188 174 C-182.04703442 170.56559678 -175.66321844 170.86673563 -169 171 C-168.67 170.01 -168.34 169.02 -168 168 C-166.34997172 166.64613064 -164.6825613 165.31321858 -163 164 C-162.34 163.01 -161.68 162.02 -161 161 C-160.34 161 -159.68 161 -159 161 C-158.67 160.01 -158.34 159.02 -158 158 C-157.34 158 -156.68 158 -156 158 C-155.67 157.01 -155.34 156.02 -155 155 C-154.34 155 -153.68 155 -153 155 C-152.67 154.01 -152.34 153.02 -152 152 C-150.34997172 150.64613064 -148.6825613 149.31321858 -147 148 C-146.34 147.01 -145.68 146.02 -145 145 C-144.34 145 -143.68 145 -143 145 C-142.67 144.01 -142.34 143.02 -142 142 C-141.34 142 -140.68 142 -140 142 C-139.67 141.01 -139.34 140.02 -139 139 C-137.34997172 137.64613064 -135.6825613 136.31321858 -134 135 C-133.34 134.01 -132.68 133.02 -132 132 C-131.34 132 -130.68 132 -130 132 C-129.67 131.01 -129.34 130.02 -129 129 C-128.34 129 -127.68 129 -127 129 C-126.67 128.01 -126.34 127.02 -126 126 C-125.34 126 -124.68 126 -124 126 C-123.505 124.515 -123.505 124.515 -123 123 C-121.34997172 121.64613064 -119.6825613 120.31321858 -118 119 C-117.01 117.515 -117.01 117.515 -116 116 C-115.34 116 -114.68 116 -114 116 C-113.505 114.515 -113.505 114.515 -113 113 C-112.34 113 -111.68 113 -111 113 C-110.505 111.515 -110.505 111.515 -110 110 C-109.34 110 -108.68 110 -108 110 C-107.505 108.515 -107.505 108.515 -107 107 C-105.0625 104.8125 -105.0625 104.8125 -103 103 C-102.34 103 -101.68 103 -101 103 C-100.505 101.515 -100.505 101.515 -100 100 C-99.34 100 -98.68 100 -98 100 C-97.505 98.515 -97.505 98.515 -97 97 C-96.34 97 -95.68 97 -95 97 C-94.505 95.515 -94.505 95.515 -94 94 C-92.34997172 92.64613064 -90.6825613 91.31321858 -89 90 C-88.01 88.515 -88.01 88.515 -87 87 C-86.34 87 -85.68 87 -85 87 C-84.505 85.515 -84.505 85.515 -84 84 C-83.34 84 -82.68 84 -82 84 C-81.505 82.515 -81.505 82.515 -81 81 C-80.34 81 -79.68 81 -79 81 C-78.505 79.515 -78.505 79.515 -78 78 C-76.0625 75.8125 -76.0625 75.8125 -74 74 C-73.34 74 -72.68 74 -72 74 C-71.67 73.01 -71.34 72.02 -71 71 C-70.34 71 -69.68 71 -69 71 C-68.67 70.01 -68.34 69.02 -68 68 C-67.34 68 -66.68 68 -66 68 C-65.67 67.01 -65.34 66.02 -65 65 C-64.34 65 -63.68 65 -63 65 C-62.67 64.01 -62.34 63.02 -62 62 C-60.0625 59.8125 -60.0625 59.8125 -58 58 C-57.34 58 -56.68 58 -56 58 C-55.67 57.01 -55.34 56.02 -55 55 C-54.34 55 -53.68 55 -53 55 C-52.67 54.01 -52.34 53.02 -52 52 C-51.34 52 -50.68 52 -50 52 C-49.67 51.01 -49.34 50.02 -49 49 C-48.34 49 -47.68 49 -47 49 C-46.67 48.01 -46.34 47.02 -46 46 C-44.0625 43.8125 -44.0625 43.8125 -42 42 C-41.34 42 -40.68 42 -40 42 C-39.67 41.01 -39.34 40.02 -39 39 C-38.34 39 -37.68 39 -37 39 C-36.67 38.01 -36.34 37.02 -36 36 C-35.34 36 -34.68 36 -34 36 C-33.67 35.01 -33.34 34.02 -33 33 C-31.0625 30.8125 -31.0625 30.8125 -29 29 C-28.34 29 -27.68 29 -27 29 C-26.67 28.01 -26.34 27.02 -26 26 C-25.34 26 -24.68 26 -24 26 C-23.67 25.01 -23.34 24.02 -23 23 C-22.34 23 -21.68 23 -21 23 C-20.67 22.01 -20.34 21.02 -20 20 C-19.34 20 -18.68 20 -18 20 C-17.67 19.01 -17.34 18.02 -17 17 C-15.0625 14.8125 -15.0625 14.8125 -13 13 C-12.34 13 -11.68 13 -11 13 C-10.67 12.01 -10.34 11.02 -10 10 C-9.34 10 -8.68 10 -8 10 C-7.67 9.01 -7.34 8.02 -7 7 C-6.34 7 -5.68 7 -5 7 C-4.67 6.01 -4.34 5.02 -4 4 C-3.34 4 -2.68 4 -2 4 C-1.34 2.68 -0.68 1.36 0 0 Z " fill="#FC1818" transform="translate(541,291)"/>
<path d="M0 0 C1.3096875 -0.00257813 2.619375 -0.00515625 3.96875 -0.0078125 C6.72235924 0.09575245 8.90352847 0.29041986 11.5 1.125 C11.5 1.785 11.5 2.445 11.5 3.125 C12.799375 3.2178125 12.799375 3.2178125 14.125 3.3125 C19.47555941 4.60059764 22.33154037 7.68946389 25.6875 11.8125 C30.51437399 20.63402833 32.11883152 30.30438182 29.5 40.125 C28.84 40.125 28.18 40.125 27.5 40.125 C27.17 42.105 26.84 44.085 26.5 46.125 C25.84 46.125 25.18 46.125 24.5 46.125 C24.231875 46.723125 23.96375 47.32125 23.6875 47.9375 C22.50082594 50.12347854 21.40400887 51.53832594 19.5 53.125 C18.84 53.125 18.18 53.125 17.5 53.125 C17.17 54.115 16.84 55.105 16.5 56.125 C15.51 56.125 14.52 56.125 13.5 56.125 C13.5 56.785 13.5 57.445 13.5 58.125 C9.74600202 59.3289337 6.16782588 59.22377617 2.25 59.1875 C0.98671875 59.17847656 -0.2765625 59.16945313 -1.578125 59.16015625 C-2.54234375 59.14855469 -3.5065625 59.13695312 -4.5 59.125 C-4.5 60.115 -4.5 61.105 -4.5 62.125 C-5.81789398 63.52110386 -5.81789398 63.52110386 -7.73181152 65.05140686 C-11.3734663 68.1074729 -14.80734258 71.3163551 -18.16955566 74.67430115 C-18.68691756 75.19041494 -19.20427946 75.70652872 -19.73731899 76.23828232 C-21.42384199 77.92440785 -23.10743728 79.61342489 -24.79101562 81.30249023 C-26.01363996 82.5253971 -27.23648543 83.7480829 -28.45953369 84.9705658 C-31.75871759 88.26946428 -35.05482192 91.57142393 -38.35035896 94.87396502 C-41.80253173 98.33241397 -45.25756057 101.78800733 -48.71228027 105.24391174 C-55.2447281 111.77946035 -61.77462389 118.31755257 -68.30359411 124.85657507 C-75.74058929 132.30477039 -83.18044412 139.75010648 -90.62053394 147.19521034 C-105.91686091 162.5019733 -121.20961455 177.81230202 -136.5 193.125 C-139.65739559 191.61990725 -141.78834791 190.07328881 -144.25 187.5703125 C-144.9409375 186.87292969 -145.631875 186.17554688 -146.34375 185.45703125 C-147.0553125 184.72871094 -147.766875 184.00039063 -148.5 183.25 C-149.2115625 182.52941406 -149.923125 181.80882812 -150.65625 181.06640625 C-151.98669064 179.71859046 -153.31505957 178.36872408 -154.640625 177.01611328 C-155.97900742 175.65488557 -157.34761377 174.32313811 -158.734375 173.01123047 C-160.5 171.125 -160.5 171.125 -160.5 169.125 C-161.49 168.795 -162.48 168.465 -163.5 168.125 C-162.6875 165.6875 -162.6875 165.6875 -161.5 163.125 C-160.51 162.795 -159.52 162.465 -158.5 162.125 C-158.17 161.135 -157.84 160.145 -157.5 159.125 C-156.84 159.125 -156.18 159.125 -155.5 159.125 C-155.17 158.135 -154.84 157.145 -154.5 156.125 C-153.84 156.125 -153.18 156.125 -152.5 156.125 C-152.17 155.135 -151.84 154.145 -151.5 153.125 C-150.84 153.125 -150.18 153.125 -149.5 153.125 C-149.17 152.135 -148.84 151.145 -148.5 150.125 C-147.84 150.125 -147.18 150.125 -146.5 150.125 C-145.51 148.145 -145.51 148.145 -144.5 146.125 C-143.84 146.125 -143.18 146.125 -142.5 146.125 C-142.17 145.135 -141.84 144.145 -141.5 143.125 C-140.84 143.125 -140.18 143.125 -139.5 143.125 C-139.17 142.135 -138.84 141.145 -138.5 140.125 C-137.84 140.125 -137.18 140.125 -136.5 140.125 C-136.17 139.135 -135.84 138.145 -135.5 137.125 C-134.84 137.125 -134.18 137.125 -133.5 137.125 C-132.51 135.145 -132.51 135.145 -131.5 133.125 C-130.84 133.125 -130.18 133.125 -129.5 133.125 C-129.17 132.135 -128.84 131.145 -128.5 130.125 C-127.84 130.125 -127.18 130.125 -126.5 130.125 C-126.17 129.135 -125.84 128.145 -125.5 127.125 C-124.84 127.125 -124.18 127.125 -123.5 127.125 C-123.005 125.64 -123.005 125.64 -122.5 124.125 C-121.84 124.125 -121.18 124.125 -120.5 124.125 C-120.005 122.64 -120.005 122.64 -119.5 121.125 C-118.84 121.125 -118.18 121.125 -117.5 121.125 C-116.84 119.805 -116.18 118.485 -115.5 117.125 C-114.84 117.125 -114.18 117.125 -113.5 117.125 C-113.005 115.64 -113.005 115.64 -112.5 114.125 C-111.84 114.125 -111.18 114.125 -110.5 114.125 C-110.005 112.64 -110.005 112.64 -109.5 111.125 C-108.84 111.125 -108.18 111.125 -107.5 111.125 C-107.005 109.64 -107.005 109.64 -106.5 108.125 C-105.84 108.125 -105.18 108.125 -104.5 108.125 C-104.005 106.64 -104.005 106.64 -103.5 105.125 C-102.84 105.125 -102.18 105.125 -101.5 105.125 C-100.84 103.805 -100.18 102.485 -99.5 101.125 C-98.84 101.125 -98.18 101.125 -97.5 101.125 C-97.005 99.64 -97.005 99.64 -96.5 98.125 C-95.84 98.125 -95.18 98.125 -94.5 98.125 C-94.005 96.64 -94.005 96.64 -93.5 95.125 C-92.84 95.125 -92.18 95.125 -91.5 95.125 C-91.005 93.64 -91.005 93.64 -90.5 92.125 C-89.84 92.125 -89.18 92.125 -88.5 92.125 C-87.51 90.145 -87.51 90.145 -86.5 88.125 C-85.84 88.125 -85.18 88.125 -84.5 88.125 C-84.005 86.64 -84.005 86.64 -83.5 85.125 C-82.84 85.125 -82.18 85.125 -81.5 85.125 C-81.005 83.64 -81.005 83.64 -80.5 82.125 C-79.84 82.125 -79.18 82.125 -78.5 82.125 C-78.005 80.64 -78.005 80.64 -77.5 79.125 C-76.84 79.125 -76.18 79.125 -75.5 79.125 C-75.190625 78.320625 -75.190625 78.320625 -74.875 77.5 C-72.96749574 74.20521991 -70.45180616 71.53136372 -67.5 69.125 C-66.84 69.125 -66.18 69.125 -65.5 69.125 C-65.005 67.64 -65.005 67.64 -64.5 66.125 C-63.84 66.125 -63.18 66.125 -62.5 66.125 C-62.005 64.64 -62.005 64.64 -61.5 63.125 C-60.84 63.125 -60.18 63.125 -59.5 63.125 C-59.29375 62.58875 -59.0875 62.0525 -58.875 61.5 C-56.96749574 58.20521991 -54.45180616 55.53136372 -51.5 53.125 C-50.84 53.125 -50.18 53.125 -49.5 53.125 C-49.17 52.135 -48.84 51.145 -48.5 50.125 C-47.84 50.125 -47.18 50.125 -46.5 50.125 C-46.17 49.135 -45.84 48.145 -45.5 47.125 C-44.84 47.125 -44.18 47.125 -43.5 47.125 C-43.231875 46.526875 -42.96375 45.92875 -42.6875 45.3125 C-41.50082594 43.12652146 -40.40400887 41.71167406 -38.5 40.125 C-37.84 40.125 -37.18 40.125 -36.5 40.125 C-36.17 39.135 -35.84 38.145 -35.5 37.125 C-34.84 37.125 -34.18 37.125 -33.5 37.125 C-31.23830234 33.43786264 -30.86051434 29.585444 -30.375 25.375 C-30.28863281 24.67761719 -30.20226562 23.98023438 -30.11328125 23.26171875 C-29.90228154 21.55027668 -29.70024499 19.83773371 -29.5 18.125 C-28.84 18.125 -28.18 18.125 -27.5 18.125 C-27.438125 17.403125 -27.37625 16.68125 -27.3125 15.9375 C-26.2400054 12.2250187 -24.33783356 10.69884904 -21.5 8.125 C-20.860625 7.3825 -20.22125 6.64 -19.5625 5.875 C-16.94500335 3.65409375 -14.86850575 3.4312278 -11.5 3.125 C-11.5 2.465 -11.5 1.805 -11.5 1.125 C-7.67904503 -0.1031641 -3.98826961 -0.00785092 0 0 Z " fill="#020304" transform="translate(515.5,424.875)"/>
<path d="M0 0 C3.58227195 1.24376008 5.4216387 3.16823143 8.10597229 5.84338379 C8.62364166 6.35404388 9.14131104 6.86470398 9.67466736 7.39083862 C11.378342 9.07694684 13.06701252 10.77722059 14.75514221 12.47888184 C15.93568459 13.65672935 17.11682019 14.83398256 18.29852295 16.01066589 C20.77035977 18.47660983 23.23482728 20.94963332 25.6943512 23.42785645 C28.84961116 26.60593042 32.02252208 29.76567634 35.20114613 32.92036152 C37.64214873 35.34692211 40.07355863 37.78291436 42.50215721 40.22188377 C43.66863477 41.39103172 44.83809669 42.55720988 46.01055336 43.72036171 C47.64597865 45.34564534 49.26805951 46.98317 50.88722229 48.62463379 C51.81368057 49.55427444 52.74013885 50.4839151 53.69467163 51.44172668 C55.67311096 53.92810059 55.67311096 53.92810059 55.67311096 57.92810059 C53.79811096 60.17810059 53.79811096 60.17810059 51.67311096 61.92810059 C51.01311096 61.92810059 50.35311096 61.92810059 49.67311096 61.92810059 C49.34311096 62.91810059 49.01311096 63.90810059 48.67311096 64.92810059 C47.01095829 66.26705691 45.34347489 67.59940201 43.67311096 68.92810059 C42.75503521 69.99264997 41.85902583 71.07661299 40.98561096 72.17810059 C39.84092346 73.53935059 39.84092346 73.53935059 38.67311096 74.92810059 C38.01311096 74.92810059 37.35311096 74.92810059 36.67311096 74.92810059 C36.17811096 76.41310059 36.17811096 76.41310059 35.67311096 77.92810059 C34.6966308 78.95107981 33.69179758 79.9471431 32.67311096 80.92810059 C32.07498596 81.71185059 31.47686096 82.49560059 30.86061096 83.30310059 C28.33864938 86.32945449 25.80758057 88.54317806 22.67311096 90.92810059 C22.01311096 90.92810059 21.35311096 90.92810059 20.67311096 90.92810059 C20.17811096 92.41310059 20.17811096 92.41310059 19.67311096 93.92810059 C18.86873596 94.56747559 18.06436096 95.20685059 17.23561096 95.86560059 C14.60162589 97.67747092 14.60162589 97.67747092 13.67311096 100.05310059 C12.67311096 101.92810059 12.67311096 101.92810059 10.17311096 102.86560059 C7.42540998 103.71448394 7.42540998 103.71448394 6.36061096 106.55310059 C6.02029846 107.72872559 6.02029846 107.72872559 5.67311096 108.92810059 C5.01311096 108.92810059 4.35311096 108.92810059 3.67311096 108.92810059 C3.72531799 110.30481934 3.72531799 110.30481934 3.77857971 111.70935059 C3.93524584 118.81154845 4.03581753 124.57632151 0.67311096 130.92810059 C-0.31688904 131.25810059 -1.30688904 131.58810059 -2.32688904 131.92810059 C-3.01175629 133.25217727 -3.67559106 134.58719299 -4.32688904 135.92810059 C-6.26438904 138.17810059 -6.26438904 138.17810059 -8.32688904 139.92810059 C-9.31688904 139.92810059 -10.30688904 139.92810059 -11.32688904 139.92810059 C-11.65688904 141.24810059 -11.98688904 142.56810059 -12.32688904 143.92810059 C-20.60276172 145.90022344 -28.95849671 147.15967187 -37.32688904 144.92810059 C-37.32688904 144.26810059 -37.32688904 143.60810059 -37.32688904 142.92810059 C-38.47157654 142.71153809 -38.47157654 142.71153809 -39.63938904 142.49060059 C-42.32688904 141.92810059 -42.32688904 141.92810059 -45.32688904 140.92810059 C-45.32688904 140.26810059 -45.32688904 139.60810059 -45.32688904 138.92810059 C-46.19313904 138.58778809 -46.19313904 138.58778809 -47.07688904 138.24060059 C-49.94371614 136.56828478 -51.4639994 134.65590327 -53.32688904 131.92810059 C-53.32688904 130.93810059 -53.32688904 129.94810059 -53.32688904 128.92810059 C-53.98688904 128.92810059 -54.64688904 128.92810059 -55.32688904 128.92810059 C-57.54232389 119.27513442 -59.31276879 108.73179261 -54.03392029 99.72106934 C-51.25812265 95.87491271 -48.33955471 92.53091075 -44.32688904 89.92810059 C-43.33688904 89.92810059 -42.34688904 89.92810059 -41.32688904 89.92810059 C-41.32688904 89.26810059 -41.32688904 88.60810059 -41.32688904 87.92810059 C-37.86188904 87.43310059 -37.86188904 87.43310059 -34.32688904 86.92810059 C-34.32688904 86.26810059 -34.32688904 85.60810059 -34.32688904 84.92810059 C-33.75378998 84.9209906 -33.18069092 84.91388062 -32.59022522 84.90655518 C-26.1751663 84.55760742 -23.11286685 82.89389125 -18.72532654 78.31872559 C-17.87522507 77.47298981 -17.87522507 77.47298981 -17.00794983 76.61016846 C-15.82378139 75.42270002 -14.64940001 74.22539766 -13.48460388 73.0189209 C-11.69602235 71.17204268 -9.87258958 69.36578985 -8.04173279 67.56091309 C-6.89235247 66.39906712 -5.74513588 65.23507576 -4.60032654 64.06872559 C-4.05468048 63.52895081 -3.50903442 62.98917603 -2.94685364 62.43304443 C-1.25188087 60.71990079 -1.25188087 60.71990079 0.67311096 57.92810059 C0.49209675 52.55880213 -2.71107969 49.57892988 -6.32688904 45.92810059 C-7.96984099 44.56565263 -9.63513241 43.22945184 -11.32688904 41.92810059 C-12.9935557 40.26143392 -14.66022237 38.59476725 -16.32688904 36.92810059 C-17.09001404 36.37122559 -17.85313904 35.81435059 -18.63938904 35.24060059 C-19.19626404 34.80747559 -19.75313904 34.37435059 -20.32688904 33.92810059 C-20.32688904 33.26810059 -20.32688904 32.60810059 -20.32688904 31.92810059 C-21.31688904 31.59810059 -22.30688904 31.26810059 -23.32688904 30.92810059 C-25.07688904 29.11560059 -25.07688904 29.11560059 -26.32688904 26.92810059 C-26.06419662 22.72787726 -23.18215376 20.29890067 -20.37376404 17.47106934 C-19.87652832 16.96384842 -19.3792926 16.4566275 -18.86698914 15.93403625 C-17.81511829 14.86700666 -16.75916629 13.80398692 -15.69944763 12.74475098 C-14.08043668 11.11916264 -12.48692913 9.47110512 -10.89329529 7.82067871 C-9.86742683 6.78601075 -8.84012933 5.75275732 -7.81126404 4.72106934 C-7.3371106 4.22535934 -6.86295715 3.72964935 -6.37443542 3.21891785 C-2.99470456 -0.0925345 -2.99470456 -0.0925345 0 0 Z " fill="#020303" transform="translate(647.3268890380859,461.0718994140625)"/>
<path d="M0 0 C0.495 1.485 0.495 1.485 1 3 C2.65 3 4.3 3 6 3 C6 3.66 6 4.32 6 5 C6.99 5 7.98 5 9 5 C9 5.66 9 6.32 9 7 C10.2375 7.0309375 10.2375 7.0309375 11.5 7.0625 C16.36961881 8.36686218 19.79803015 11.11789812 23 15 C23.73046875 17.734375 23.73046875 17.734375 24 20 C24.66 20 25.32 20 26 20 C26.28875 20.804375 26.5775 21.60875 26.875 22.4375 C27.73262568 25.1326468 27.73262568 25.1326468 30 26 C29.01 26.33 28.02 26.66 27 27 C27.05220703 28.37671875 27.05220703 28.37671875 27.10546875 29.78125 C27.26213488 36.88344787 27.36270657 42.64822092 24 49 C23.01 49.33 22.02 49.66 21 50 C20.31513275 51.32407669 19.65129797 52.65909241 19 54 C17.0625 56.25 17.0625 56.25 15 58 C14.01 58 13.02 58 12 58 C11.67 59.32 11.34 60.64 11 62 C2.72412732 63.97212285 -5.63160767 65.23157129 -14 63 C-14 62.34 -14 61.68 -14 61 C-14.763125 60.855625 -15.52625 60.71125 -16.3125 60.5625 C-19 60 -19 60 -22 59 C-22 58.34 -22 57.68 -22 57 C-22.5775 56.773125 -23.155 56.54625 -23.75 56.3125 C-26.6168271 54.64018419 -28.13711036 52.72780269 -30 50 C-30 49.01 -30 48.02 -30 47 C-30.66 47 -31.32 47 -32 47 C-34.21543486 37.34703384 -35.98587975 26.80369202 -30.70703125 17.79296875 C-27.93123361 13.94681212 -25.01266568 10.60281017 -21 8 C-20.01 8 -19.02 8 -18 8 C-18 7.34 -18 6.68 -18 6 C-14.535 5.505 -14.535 5.505 -11 5 C-11 4.34 -11 3.68 -11 3 C-10.37351562 2.95101562 -9.74703125 2.90203125 -9.1015625 2.8515625 C-7.87566406 2.73941406 -7.87566406 2.73941406 -6.625 2.625 C-5.81289063 2.55539062 -5.00078125 2.48578125 -4.1640625 2.4140625 C-1.79665809 2.17107412 -1.79665809 2.17107412 0 0 Z " fill="#024CAC" transform="translate(624,543)"/>
<path d="M0 0 C0 0.66 0 1.32 0 2 C0.5775 2.0825 1.155 2.165 1.75 2.25 C4.6539336 3.21797787 6.03740604 4.68694284 8 7 C8 7.66 8 8.32 8 9 C8.66 9 9.32 9 10 9 C10 9.66 10 10.32 10 11 C10.66 11 11.32 11 12 11 C13.76462683 14.08809695 14 15.23312136 14 19 C14.66 19 15.32 19 16 19 C16 24.94 16 30.88 16 37 C15.34 37 14.68 37 14 37 C13.855625 38.11375 13.71125 39.2275 13.5625 40.375 C13 44 13 44 12 46 C11.34 46 10.68 46 10 46 C9.773125 46.5775 9.54625 47.155 9.3125 47.75 C7.64018419 50.6168271 5.72780269 52.13711036 3 54 C2.01 54 1.02 54 0 54 C0 54.66 0 55.32 0 56 C-5.14755093 59.13293435 -9.05250622 59.37993835 -14.875 59.1875 C-16.050625 59.16719727 -16.050625 59.16719727 -17.25 59.14648438 C-19.16696782 59.11141789 -21.08357751 59.05762072 -23 59 C-23 58.34 -23 57.68 -23 57 C-23.88429688 56.91878906 -24.76859375 56.83757812 -25.6796875 56.75390625 C-31.99239849 55.32054952 -36.84011089 50.07347144 -40.49609375 44.87109375 C-44.71088552 36.98186812 -45.60058369 26.07663459 -43.328125 17.44921875 C-42.6320539 15.60069032 -41.8277404 13.79343753 -41 12 C-40.34 12 -39.68 12 -39 12 C-38.773125 11.443125 -38.54625 10.88625 -38.3125 10.3125 C-36.23753357 6.65660676 -33.72136865 3.6048052 -29.6875 2.1875 C-29.130625 2.125625 -28.57375 2.06375 -28 2 C-28 1.34 -28 0.68 -28 0 C-18.60908234 -2.50424471 -9.27282229 -3.37193538 0 0 Z " fill="#FC1818" transform="translate(369,357)"/>
<path d="M0 0 C0 0.66 0 1.32 0 2 C0.721875 2.08378906 1.44375 2.16757812 2.1875 2.25390625 C8.99661061 4.06021198 14.66226143 10.72985314 18.1875 16.625 C21.49796383 24.0125614 20.17927975 33.39163736 18 41 C17.34 41 16.68 41 16 41 C15.67 42.98 15.34 44.96 15 47 C14.34 47 13.68 47 13 47 C12.9175 47.598125 12.835 48.19625 12.75 48.8125 C11.78423221 51.62932273 10.51131433 52.47799132 8 54 C7.34 54 6.68 54 6 54 C5.67 54.99 5.34 55.98 5 57 C4.01 57 3.02 57 2 57 C2 57.66 2 58.32 2 59 C-0.85160391 59.81434143 -3.36626131 60.11881242 -6.328125 60.09765625 C-7.12734375 60.09443359 -7.9265625 60.09121094 -8.75 60.08789062 C-9.575 60.07951172 -10.4 60.07113281 -11.25 60.0625 C-12.09046875 60.05798828 -12.9309375 60.05347656 -13.796875 60.04882812 C-15.86461401 60.03707961 -17.93231624 60.01914522 -20 60 C-20 59.34 -20 58.68 -20 58 C-20.886875 57.938125 -21.77375 57.87625 -22.6875 57.8125 C-26.78106188 56.80841878 -28.17526011 55.04774567 -31 52 C-31.65355469 51.72800781 -32.30710937 51.45601562 -32.98046875 51.17578125 C-35.82109761 49.52195284 -36.41620642 47.61675082 -37.6875 44.625 C-38.10386719 43.66851563 -38.52023437 42.71203125 -38.94921875 41.7265625 C-42.14778739 33.42693086 -42.03519668 24.34679087 -39 16 C-38.34 16 -37.68 16 -37 16 C-36.938125 15.46375 -36.87625 14.9275 -36.8125 14.375 C-35.59964736 10.82973843 -33.55389074 8.7407608 -31 6 C-30.34 6 -29.68 6 -29 6 C-29 5.34 -29 4.68 -29 4 C-19.1954875 -1.47524724 -11.02398588 -0.99384061 0 0 Z " fill="#FB1A19" transform="translate(537,523)"/>
<path d="M0 0 C0 0.33 0 0.66 0 1 C2.64 1.66 5.28 2.32 8 3 C8 3.66 8 4.32 8 5 C8.721875 5.061875 9.44375 5.12375 10.1875 5.1875 C13.8999813 6.2599946 15.42615096 8.16216644 18 11 C19.11375 11.928125 19.11375 11.928125 20.25 12.875 C22.63756252 15.77418306 22.71714599 18.32289786 23 22 C23.66 22 24.32 22 25 22 C25 27.94 25 33.88 25 40 C24.34 40 23.68 40 23 40 C22.67 42.31 22.34 44.62 22 47 C21.34 47 20.68 47 20 47 C19.9071875 47.86625 19.9071875 47.86625 19.8125 48.75 C18.66496667 51.9277846 16.70744923 53.048118 14 55 C12.948125 55.86625 12.948125 55.86625 11.875 56.75 C10 58 10 58 7 58 C7 58.66 7 59.32 7 60 C3.06410933 61.29146413 -0.90735132 61.14724266 -5 61.125 C-6.06734375 61.13080078 -6.06734375 61.13080078 -7.15625 61.13671875 C-10.57538017 61.13033978 -13.73293006 61.07200732 -17 60 C-17 59.34 -17 58.68 -17 58 C-18.65 57.67 -20.3 57.34 -22 57 C-22 56.34 -22 55.68 -22 55 C-22.7425 54.7525 -23.485 54.505 -24.25 54.25 C-27.29534318 52.8657531 -28.91484062 51.60644923 -31 49 C-31.75 46.25 -31.75 46.25 -32 44 C-32.66 44 -33.32 44 -34 44 C-35.17700048 39.37540756 -35.11408412 34.92133538 -35.0625 30.1875 C-35.05573242 29.00510742 -35.05573242 29.00510742 -35.04882812 27.79882812 C-35.03711312 25.86585239 -35.01917998 23.93291607 -35 22 C-34.34 22 -33.68 22 -33 22 C-32.91363281 21.40832031 -32.82726562 20.81664062 -32.73828125 20.20703125 C-31.74926566 14.64495273 -30.59090153 11.63001516 -26 8 C-21.55172414 5 -21.55172414 5 -19 5 C-19 4.34 -19 3.68 -19 3 C-13.04703442 -0.43440322 -6.66321844 -0.13326437 0 0 Z " fill="#020303" transform="translate(372,462)"/>
<path d="M0 0 C1.3096875 -0.00257813 2.619375 -0.00515625 3.96875 -0.0078125 C6.72235924 0.09575245 8.90352847 0.29041986 11.5 1.125 C11.5 1.785 11.5 2.445 11.5 3.125 C12.799375 3.2178125 12.799375 3.2178125 14.125 3.3125 C19.47555941 4.60059764 22.33154037 7.68946389 25.6875 11.8125 C30.51437399 20.63402833 32.11883152 30.30438182 29.5 40.125 C28.84 40.125 28.18 40.125 27.5 40.125 C27.17 42.105 26.84 44.085 26.5 46.125 C25.84 46.125 25.18 46.125 24.5 46.125 C24.231875 46.723125 23.96375 47.32125 23.6875 47.9375 C22.50082594 50.12347854 21.40400887 51.53832594 19.5 53.125 C18.84 53.125 18.18 53.125 17.5 53.125 C17.17 54.115 16.84 55.105 16.5 56.125 C15.51 56.125 14.52 56.125 13.5 56.125 C13.5 56.785 13.5 57.445 13.5 58.125 C4.16758058 61.09223079 -7.59425645 59.72155028 -16.5 56.125 C-16.5 55.465 -16.5 54.805 -16.5 54.125 C-17.8303125 53.8465625 -17.8303125 53.8465625 -19.1875 53.5625 C-23.4063 51.7317 -25.44701343 49.2037211 -27.5 45.125 C-27.5 44.135 -27.5 43.145 -27.5 42.125 C-28.16 42.125 -28.82 42.125 -29.5 42.125 C-29.78875 41.155625 -30.0775 40.18625 -30.375 39.1875 C-31.14214682 36.01835797 -31.14214682 36.01835797 -33.5 35.125 C-32.84 34.465 -32.18 33.805 -31.5 33.125 C-31.0342637 30.56632526 -30.66515752 28.07812092 -30.375 25.5 C-30.28863281 24.79359375 -30.20226562 24.0871875 -30.11328125 23.359375 C-29.90118817 21.61549859 -29.69959009 19.8703516 -29.5 18.125 C-28.84 18.125 -28.18 18.125 -27.5 18.125 C-27.438125 17.403125 -27.37625 16.68125 -27.3125 15.9375 C-26.2400054 12.2250187 -24.33783356 10.69884904 -21.5 8.125 C-20.860625 7.3825 -20.22125 6.64 -19.5625 5.875 C-16.94500335 3.65409375 -14.86850575 3.4312278 -11.5 3.125 C-11.5 2.465 -11.5 1.805 -11.5 1.125 C-7.67904503 -0.1031641 -3.98826961 -0.00785092 0 0 Z " fill="#014BAD" transform="translate(515.5,424.875)"/>
<path d="M0 0 C0 0.66 0 1.32 0 2 C2.475 2.495 2.475 2.495 5 3 C5 3.66 5 4.32 5 5 C5.598125 5.28875 6.19625 5.5775 6.8125 5.875 C11.7828979 8.43120463 13.03471514 10.88656004 14.6875 16 C14.90881592 16.66974854 15.13013184 17.33949707 15.3581543 18.02954102 C17.03370503 23.41233647 17.5968507 28.36307672 17 34 C16.34 34 15.68 34 15 34 C14.95101562 34.60328125 14.90203125 35.2065625 14.8515625 35.828125 C14.77679687 36.62734375 14.70203125 37.4265625 14.625 38.25 C14.52058594 39.43335938 14.52058594 39.43335938 14.4140625 40.640625 C13.60202262 45.26772015 11.55860172 47.70311806 8.0625 50.75 C7.37285156 51.36359375 6.68320312 51.9771875 5.97265625 52.609375 C4 54 4 54 1 54 C1 54.66 1 55.32 1 56 C-9.1103088 59.24464339 -19.39128301 59.41068504 -29.2421875 55.16796875 C-31 54 -31 54 -32 51 C-32.99 50.67 -33.98 50.34 -35 50 C-38.40802387 46.49174013 -39.54842977 43.85437999 -40 39 C-40.66 39 -41.32 39 -42 39 C-44.1113431 29.49895605 -42.98377164 21.182202 -40 12 C-39.34 12 -38.68 12 -38 12 C-37.73703125 11.40316406 -37.4740625 10.80632813 -37.203125 10.19140625 C-33.89085636 4.15834552 -27.11609242 0.22370315 -20.6875 -1.6875 C-13.45486887 -2.52850362 -7.026955 -1.86056492 0 0 Z " fill="#010202" transform="translate(529,617)"/>
<path d="M0 0 C0.33 0 0.66 0 1 0 C1.495 7.92 1.495 7.92 2 16 C2.66 16 3.32 16 4 16 C4.10957031 16.56589844 4.21914063 17.13179687 4.33203125 17.71484375 C4.56986328 18.81505859 4.56986328 18.81505859 4.8125 19.9375 C4.96332031 20.66839844 5.11414063 21.39929688 5.26953125 22.15234375 C5.51058594 22.76207031 5.75164062 23.37179687 6 24 C6.99 24.33 7.98 24.66 9 25 C9.515625 25.763125 10.03125 26.52625 10.5625 27.3125 C16.01721936 33.32667775 23.36908276 34.29166663 31.125 34.75 C33.41600835 34.8498063 35.7076336 34.93887023 38 35 C38 35.33 38 35.66 38 36 C36.75148003 35.96953835 36.75148003 35.96953835 35.47773743 35.9384613 C27.76991654 36.08158302 23.51277144 37.12077676 18.03837585 42.60206604 C16.95783684 43.77550819 16.95783684 43.77550819 15.85546875 44.97265625 C15.07480545 45.77029892 14.29414215 46.56794159 13.48982239 47.38975525 C11.02586927 49.92038159 8.60715151 52.48955649 6.1875 55.0625 C4.51519872 56.79505272 2.84009184 58.52490206 1.16210938 60.25195312 C-2.92488936 64.47058487 -6.97564634 68.72161306 -11 73 C-15.08496751 71.12906846 -17.84508228 68.38029582 -20.9375 65.1875 C-21.70610352 64.40536133 -21.70610352 64.40536133 -22.49023438 63.60742188 C-23.9964157 62.07444698 -25.49888518 60.53793509 -27 59 C-30.20916845 55.71244669 -33.00109582 53.2557921 -37 51 C-38.34631825 50.01755155 -39.68441297 49.02323436 -41 48 C-39.88460992 45.76921985 -38.83048532 44.90557898 -36.91552734 43.33154297 C-30.5788343 37.99891405 -24.748342 32.12733941 -18.85498047 26.31494141 C-17.36463114 24.85135114 -15.86716566 23.39497309 -14.36279297 21.94580078 C-12.17527001 19.83737362 -10.01160052 17.70684555 -7.8515625 15.5703125 C-7.17872223 14.93046417 -6.50588196 14.29061584 -5.81265259 13.63137817 C-1.38197399 9.18134943 -0.12832777 6.30552051 0 0 Z " fill="#024AA9" transform="translate(485,640)"/>
<path d="M0 0 C1.98 0.495 1.98 0.495 4 1 C0.3849762 4.61930045 -3.24024666 8.22814799 -6.871521 11.83114624 C-8.05840426 13.00923273 -9.24526745 14.18733944 -10.43211365 15.36546326 C-11.0609741 15.989671 -11.68983456 16.61387875 -12.33775139 17.25700188 C-26.81614114 31.62928276 -41.27738243 46.01871473 -55.72889328 60.41802025 C-64.08184431 68.73998605 -72.44037624 77.05620197 -80.81201172 85.359375 C-88.12380215 92.61140136 -95.42501774 99.87388013 -102.71368241 107.14915144 C-106.56975639 110.99740282 -110.4309389 114.84019405 -114.30486298 118.67048264 C-117.94579447 122.2707241 -121.57243523 125.8847594 -125.18855858 129.50991249 C-126.51808197 130.83778427 -127.85276163 132.16051629 -129.19290352 133.47767067 C-131.02158619 135.27650816 -132.83082426 137.09291235 -134.63641357 138.91488647 C-135.17093195 139.4319278 -135.70545032 139.94896912 -136.25616622 140.48167837 C-139.86047931 144.17512044 -140.53976603 146.94592971 -141 152 C-141.66 152.33 -142.32 152.66 -143 153 C-143 149.37 -143 145.74 -143 142 C-141.68 141.67 -140.36 141.34 -139 141 C-138.67 140.01 -138.34 139.02 -138 138 C-137.34 138 -136.68 138 -136 138 C-135.67 137.01 -135.34 136.02 -135 135 C-134.34 135 -133.68 135 -133 135 C-132.67 134.01 -132.34 133.02 -132 132 C-130.0625 129.8125 -130.0625 129.8125 -128 128 C-127.34 128 -126.68 128 -126 128 C-125.505 126.515 -125.505 126.515 -125 125 C-124.34 125 -123.68 125 -123 125 C-122.505 123.515 -122.505 123.515 -122 122 C-121.34 122 -120.68 122 -120 122 C-119.505 120.515 -119.505 120.515 -119 119 C-117.34997172 117.64613064 -115.6825613 116.31321858 -114 115 C-113.34 114.01 -112.68 113.02 -112 112 C-111.34 112 -110.68 112 -110 112 C-109.505 110.515 -109.505 110.515 -109 109 C-108.34 109 -107.68 109 -107 109 C-106.505 107.515 -106.505 107.515 -106 106 C-105.34 106 -104.68 106 -104 106 C-103.505 104.515 -103.505 104.515 -103 103 C-101.34997172 101.64613064 -99.6825613 100.31321858 -98 99 C-97.01 97.515 -97.01 97.515 -96 96 C-95.34 96 -94.68 96 -94 96 C-93.505 94.515 -93.505 94.515 -93 93 C-92.34 93 -91.68 93 -91 93 C-90.505 91.515 -90.505 91.515 -90 90 C-89.34 90 -88.68 90 -88 90 C-87.505 88.515 -87.505 88.515 -87 87 C-85.34997172 85.64613064 -83.6825613 84.31321858 -82 83 C-81.01 81.515 -81.01 81.515 -80 80 C-79.34 80 -78.68 80 -78 80 C-77.505 78.515 -77.505 78.515 -77 77 C-76.34 77 -75.68 77 -75 77 C-74.505 75.515 -74.505 75.515 -74 74 C-73.34 74 -72.68 74 -72 74 C-71.505 72.515 -71.505 72.515 -71 71 C-69.34997172 69.64613064 -67.6825613 68.31321858 -66 67 C-65.01 65.515 -65.01 65.515 -64 64 C-63.34 64 -62.68 64 -62 64 C-61.67 63.01 -61.34 62.02 -61 61 C-60.34 61 -59.68 61 -59 61 C-58.67 60.01 -58.34 59.02 -58 58 C-56.33784732 56.66104368 -54.67036393 55.32869858 -53 54 C-52.08192425 52.93545062 -51.18591487 51.8514876 -50.3125 50.75 C-49.1678125 49.38875 -49.1678125 49.38875 -48 48 C-47.34 48 -46.68 48 -46 48 C-45.67 47.01 -45.34 46.02 -45 45 C-44.34 45 -43.68 45 -43 45 C-42.67 44.01 -42.34 43.02 -42 42 C-40.33784732 40.66104368 -38.67036393 39.32869858 -37 38 C-36.08192425 36.93545062 -35.18591487 35.8514876 -34.3125 34.75 C-33.1678125 33.38875 -33.1678125 33.38875 -32 32 C-31.34 32 -30.68 32 -30 32 C-29.505 30.515 -29.505 30.515 -29 29 C-28.34 29 -27.68 29 -27 29 C-26.505 27.515 -26.505 27.515 -26 26 C-24.33784732 24.66104368 -22.67036393 23.32869858 -21 22 C-20.08192425 20.93545062 -19.18591487 19.8514876 -18.3125 18.75 C-17.549375 17.8425 -16.78625 16.935 -16 16 C-15.34 16 -14.68 16 -14 16 C-13.67 15.01 -13.34 14.02 -13 13 C-11.33784732 11.66104368 -9.67036393 10.32869858 -8 9 C-7.08192425 7.93545062 -6.18591487 6.8514876 -5.3125 5.75 C-4.1678125 4.38875 -4.1678125 4.38875 -3 3 C-2.34 3 -1.68 3 -1 3 C-0.67 2.01 -0.34 1.02 0 0 Z " fill="#7FC1C5" transform="translate(540,346)"/>
<path d="M0 0 C0.495 1.485 0.495 1.485 1 3 C-36.62 40.62 -74.24 78.24 -113 117 C-113.33 116.34 -113.66 115.68 -114 115 C-108.45379366 108.42521076 -102.4734197 102.33688297 -96.38305664 96.26953125 C-95.32763528 95.21439253 -94.27243519 94.15903243 -93.21743774 93.10346985 C-90.37513542 90.26088257 -87.52977747 87.42137234 -84.68382955 84.58243561 C-81.70183946 81.60672951 -78.72271242 78.62815979 -75.74327087 75.64990234 C-70.11083024 70.02056022 -64.47584711 64.3937704 -58.83992904 58.76791 C-52.41952207 52.3587103 -46.00198054 45.94664468 -39.58466923 39.53434563 C-26.39294856 26.3530558 -13.19766257 13.1753404 0 0 Z " fill="#199156" transform="translate(324,389)"/>
<path d="M0 0 C0.83120361 0.38901489 0.83120361 0.38901489 1.67919922 0.78588867 C0.94636719 1.35573486 0.21353516 1.92558105 -0.54150391 2.51269531 C-3.11557428 4.61803344 -5.44813392 6.79895071 -7.78955078 9.15698242 C-8.60810547 9.97875977 -9.42666016 10.80053711 -10.27001953 11.6472168 C-11.11177734 12.49735352 -11.95353516 13.34749023 -12.82080078 14.22338867 C-13.66255859 15.0696582 -14.50431641 15.91592773 -15.37158203 16.7878418 C-16.99171322 18.41690284 -18.61089633 20.04690746 -20.22900391 21.67797852 C-22.58656186 24.05369693 -24.95209133 26.42129156 -27.32080078 28.78588867 C-28.21798828 29.68307617 -29.11517578 30.58026367 -30.03955078 31.50463867 C-38.32080078 39.78588867 -38.32080078 39.78588867 -40.91455078 42.37573242 C-42.40944482 43.87305323 -43.899889 45.37484771 -45.38330078 46.88354492 C-48.17188178 49.7114809 -50.88966467 52.44499035 -54.00830078 54.91088867 C-56.02175749 56.54342114 -57.40538427 58.03224304 -59.00830078 60.03588867 C-60.15298828 61.39713867 -60.15298828 61.39713867 -61.32080078 62.78588867 C-61.98080078 62.78588867 -62.64080078 62.78588867 -63.32080078 62.78588867 C-63.32080078 66.74588867 -63.32080078 70.70588867 -63.32080078 74.78588867 C-63.98080078 74.78588867 -64.64080078 74.78588867 -65.32080078 74.78588867 C-65.26056584 72.7017596 -65.17171757 70.61844432 -65.07080078 68.53588867 C-65.02439453 67.37573242 -64.97798828 66.21557617 -64.93017578 65.02026367 C-64.22915242 61.29944737 -63.30149452 60.04942302 -60.32080078 57.78588867 C-59.66080078 57.78588867 -59.00080078 57.78588867 -58.32080078 57.78588867 C-57.99080078 56.79588867 -57.66080078 55.80588867 -57.32080078 54.78588867 C-56.66080078 54.78588867 -56.00080078 54.78588867 -55.32080078 54.78588867 C-54.99080078 53.79588867 -54.66080078 52.80588867 -54.32080078 51.78588867 C-53.66080078 51.78588867 -53.00080078 51.78588867 -52.32080078 51.78588867 C-52.11455078 51.24963867 -51.90830078 50.71338867 -51.69580078 50.16088867 C-49.78829652 46.86610859 -47.27260694 44.19225239 -44.32080078 41.78588867 C-43.66080078 41.78588867 -43.00080078 41.78588867 -42.32080078 41.78588867 C-41.99080078 40.79588867 -41.66080078 39.80588867 -41.32080078 38.78588867 C-40.66080078 38.78588867 -40.00080078 38.78588867 -39.32080078 38.78588867 C-39.08361328 38.22385742 -38.84642578 37.66182617 -38.60205078 37.08276367 C-37.03132381 34.26694825 -35.10608614 32.30633451 -32.82080078 30.03588867 C-32.02673828 29.23666992 -31.23267578 28.43745117 -30.41455078 27.61401367 C-28.32080078 25.78588867 -28.32080078 25.78588867 -26.32080078 25.78588867 C-26.09118652 25.23392822 -25.86157227 24.68196777 -25.625 24.11328125 C-22.99667548 19.42293726 -18.7655314 15.8189398 -14.99023438 12.02978516 C-13.44548967 10.47307515 -11.92037844 8.89867858 -10.39501953 7.32299805 C-9.41570345 6.33422486 -8.43527195 5.34655492 -7.45361328 4.36010742 C-6.56561035 3.4586499 -5.67760742 2.55719238 -4.76269531 1.62841797 C-2.32080078 -0.21411133 -2.32080078 -0.21411133 0 0 Z " fill="#4EC7B7" transform="translate(620.32080078125,487.214111328125)"/>
<path d="M0 0 C0.495 1.485 0.495 1.485 1 3 C-10.88 14.88 -22.76 26.76 -35 39 C-34.34 40.32 -33.68 41.64 -33 43 C-32.67 43.66 -32.34 44.32 -32 45 C-34.95409701 43.62845496 -37.44008376 42.01136276 -40 40 C-38.8843558 37.7687116 -37.83642981 36.91855539 -35.91772461 35.34912109 C-31.83145816 31.91079867 -28.07603258 28.20291988 -24.31640625 24.4140625 C-23.26585304 23.36138687 -23.26585304 23.36138687 -22.19407654 22.28744507 C-19.98116973 20.06898864 -17.77178584 17.84706185 -15.5625 15.625 C-14.05296686 14.11044534 -12.54320343 12.59612015 -11.03320312 11.08203125 C-7.35280298 7.39066901 -3.67528043 3.69645931 0 0 Z " fill="#1968B1" transform="translate(484,648)"/>
<path d="M0 0 C0.99 0.33 1.98 0.66 3 1 C2.34 1 1.68 1 1 1 C0.74440811 1.58156357 0.48881622 2.16312714 0.22547913 2.76231384 C-1.12334806 5.22522966 -2.60802591 6.83556693 -4.60766602 8.80297852 C-5.34505508 9.53376114 -6.08244415 10.26454376 -6.84217834 11.01747131 C-7.63804855 11.79674484 -8.43391876 12.57601837 -9.25390625 13.37890625 C-10.47798439 14.59162453 -10.47798439 14.59162453 -11.72679138 15.82884216 C-14.33395862 18.41157125 -16.947429 20.9877754 -19.5625 23.5625 C-23.00698357 26.95394781 -26.44492381 30.35182974 -29.87890625 33.75390625 C-30.67680069 34.53520401 -31.47469513 35.31650177 -32.29676819 36.12147522 C-33.0310051 36.84910568 -33.765242 37.57673615 -34.52172852 38.32641602 C-35.17077652 38.96499039 -35.81982452 39.60356476 -36.48854065 40.26148987 C-38.22438452 42.03350144 -38.22438452 42.03350144 -39 45 C-39.72239685 42.76496887 -39.72239685 42.76496887 -40 40 C-38.60169983 37.88017273 -38.60169983 37.88017273 -36.44165039 35.76049805 C-35.64074478 34.96004562 -34.83983917 34.1595932 -34.0146637 33.33488464 C-33.13455124 32.4857399 -32.25443878 31.63659515 -31.34765625 30.76171875 C-30.45839951 29.88095169 -29.56914276 29.00018463 -28.65293884 28.09272766 C-26.28772324 25.75543742 -23.91039797 23.43200246 -21.52618408 21.11419678 C-19.09585468 18.74528181 -16.68245485 16.35925684 -14.26757812 13.97460938 C-9.52718832 9.30045334 -4.77009378 4.64382785 0 0 Z " fill="#51CABC" transform="translate(688,417)"/>
<path d="M0 0 C2.20385742 0.94702148 2.20385742 0.94702148 3.20385742 2.94702148 C2.66470703 2.67124268 2.12555664 2.39546387 1.57006836 2.11132812 C-1.06996271 1.66077762 -1.06996271 1.66077762 -3.54516602 4.12841797 C-4.5948611 5.17890556 -5.63085316 6.24319813 -6.65551758 7.31811523 C-7.20475891 7.8744313 -7.75400024 8.43074738 -8.31988525 9.00392151 C-10.07402573 10.78608415 -11.8100116 12.58482672 -13.54614258 14.38452148 C-14.73118601 15.5946375 -15.91737064 16.8036371 -17.10473633 18.01147461 C-20.01527936 20.97719073 -22.90965439 23.95789559 -25.79614258 26.94702148 C-26.12614258 25.95702148 -26.45614258 24.96702148 -26.79614258 23.94702148 C-23.48897849 20.49158817 -20.16260868 17.05630535 -16.81689453 13.63818359 C-15.68151095 12.47261831 -14.55156944 11.30172607 -13.42724609 10.12548828 C-11.8103197 8.4358109 -10.17480543 6.76624136 -8.53442383 5.09936523 C-7.78567741 4.30416725 -7.78567741 4.30416725 -7.02180481 3.49290466 C-3.46657474 -0.06568119 -3.46657474 -0.06568119 0 0 Z " fill="#0A1811" transform="translate(647.796142578125,461.052978515625)"/>
<path d="M0 0 C0.57508301 0.23912109 1.15016602 0.47824219 1.74267578 0.72460938 C1.01056885 1.29155518 0.27846191 1.85850098 -0.47583008 2.44262695 C-3.08801841 4.58570817 -5.41265514 6.8109837 -7.76123047 9.23632812 C-8.58429687 10.07615234 -9.40736328 10.91597656 -10.25537109 11.78125 C-11.97277128 13.54312209 -13.68628629 15.30878923 -15.39599609 17.078125 C-16.21777344 17.91408203 -17.03955078 18.75003906 -17.88623047 19.61132812 C-19.00106812 20.75927856 -19.00106812 20.75927856 -20.13842773 21.93041992 C-22.26652898 23.73240357 -23.53256113 24.34130112 -26.25732422 24.72460938 C-21.45427392 18.97948169 -16.37937957 13.5658207 -11.13232422 8.22460938 C-10.33439453 7.38929688 -9.53646484 6.55398438 -8.71435547 5.69335938 C-7.94220703 4.90960938 -7.17005859 4.12585938 -6.37451172 3.31835938 C-5.33206299 2.24618164 -5.33206299 2.24618164 -4.26855469 1.15234375 C-2.25732422 -0.27539062 -2.25732422 -0.27539062 0 0 Z " fill="#4FC7B8" transform="translate(620.25732421875,487.275390625)"/>
<path d="M0 0 C-1.23363281 -0.01740234 -1.23363281 -0.01740234 -2.4921875 -0.03515625 C-9.40327971 -0.09101958 -16.14188265 0.13305966 -23 1 C-23 1.66 -23 2.32 -23 3 C-23.99 3.33 -24.98 3.66 -26 4 C-27.77939894 5.83084294 -27.77939894 5.83084294 -29.5 8 C-32.66666667 11.88888889 -32.66666667 11.88888889 -36 13 C-36.73323796 15.01508358 -36.73323796 15.01508358 -37 17 C-37.33 16.34 -37.66 15.68 -38 15 C-37.505 13.515 -37.505 13.515 -37 12 C-36.34 12 -35.68 12 -35 12 C-34.6596875 11.1646875 -34.6596875 11.1646875 -34.3125 10.3125 C-32.23753357 6.65660676 -29.72136865 3.6048052 -25.6875 2.1875 C-25.130625 2.125625 -24.57375 2.06375 -24 2 C-24 1.34 -24 0.68 -24 0 C-16.54359648 -1.98837427 -6.77794243 -4.51862829 0 0 Z " fill="#D95556" transform="translate(365,357)"/>
<path d="M0 0 C4.61024865 2.69868213 7.69357973 5.74884656 11.12109375 9.828125 C14.21951133 13.40966382 17.6137442 16.69290343 21 20 C20.67 20.66 20.34 21.32 20 22 C14.66666667 16.66666667 9.33333333 11.33333333 4 6 C3.25975586 5.30100586 2.51951172 4.60201172 1.75683594 3.88183594 C0 2 0 2 0 0 Z " fill="#207E88" transform="translate(452,693)"/>
<path d="M0 0 C0.33 0.66 0.66 1.32 1 2 C-0.09655288 3.31886772 -1.20253423 4.62990057 -2.3125 5.9375 C-2.92738281 6.66839844 -3.54226563 7.39929688 -4.17578125 8.15234375 C-6 10 -6 10 -9 11 C-9 14.96 -9 18.92 -9 23 C-9.66 23 -10.32 23 -11 23 C-10.93976506 20.91587093 -10.85091679 18.83255565 -10.75 16.75 C-10.70359375 15.58984375 -10.6571875 14.4296875 -10.609375 13.234375 C-9.90835164 9.5135587 -8.98069374 8.26353434 -6 6 C-5.34 6 -4.68 6 -4 6 C-3.67 5.01 -3.34 4.02 -3 3 C-2.34 3 -1.68 3 -1 3 C-0.67 2.01 -0.34 1.02 0 0 Z " fill="#75AFA5" transform="translate(566,539)"/>
<path d="M0 0 C0 0.66 0 1.32 0 2 C-0.86625 1.87625 -1.7325 1.7525 -2.625 1.625 C-7.48959287 2.16551032 -8.82889529 4.37588034 -12 8 C-12.99 7.67 -13.98 7.34 -15 7 C-10.26483794 1.19942648 -7.57578316 -0.93035934 0 0 Z " fill="#5DC6D7" transform="translate(518,676)"/>
<path d="M0 0 C0.66 0.33 1.32 0.66 2 1 C-1.10267444 4.90050501 -4.0877778 7.89028492 -8 11 C-9.37368345 12.63356951 -10.71937515 14.2925002 -12 16 C-12.66 15.67 -13.32 15.34 -14 15 C-13.34 14.01 -12.68 13.02 -12 12 C-11.34 12 -10.68 12 -10 12 C-9.67 11.01 -9.34 10.02 -9 9 C-8.34 9 -7.68 9 -7 9 C-6.67 8.01 -6.34 7.02 -6 6 C-5.34 6 -4.68 6 -4 6 C-3.67 5.01 -3.34 4.02 -3 3 C-1.4375 1.3125 -1.4375 1.3125 0 0 Z " fill="#D85455" transform="translate(392,440)"/>
<path d="M0 0 C-1.59092052 4.13639336 -4.60474918 7.23213248 -8 10 C-8.66 10 -9.32 10 -10 10 C-10.33 10.99 -10.66 11.98 -11 13 C-11.33 12.34 -11.66 11.68 -12 11 C-11.67 10.34 -11.34 9.68 -11 9 C-10.34 9 -9.68 9 -9 9 C-8.6596875 8.1646875 -8.6596875 8.1646875 -8.3125 7.3125 C-6.49644015 4.11277551 -3.9498923 0 0 0 Z " fill="#1D3233" transform="translate(500,620)"/>
<path d="M0 0 C0.33 0.66 0.66 1.32 1 2 C-3.03523352 6.81123996 -7.04467233 11.13242719 -12 15 C-12.66 14.67 -13.32 14.34 -14 14 C-13.01 13.67 -12.02 13.34 -11 13 C-10.67 12.01 -10.34 11.02 -10 10 C-9.34 10 -8.68 10 -8 10 C-7.67 9.01 -7.34 8.02 -7 7 C-5.0625 4.8125 -5.0625 4.8125 -3 3 C-2.34 3 -1.68 3 -1 3 C-0.67 2.01 -0.34 1.02 0 0 Z " fill="#D85657" transform="translate(502,330)"/>
<path d="M0 0 C0.99 0 1.98 0 3 0 C3 2.31 3 4.62 3 7 C3.66 7 4.32 7 5 7 C5.33 8.98 5.66 10.96 6 13 C5.34 12.67 4.68 12.34 4 12 C4 11.01 4 10.02 4 9 C3.34 9 2.68 9 2 9 C1.71125 8.030625 1.4225 7.06125 1.125 6.0625 C0.35785318 2.89335797 0.35785318 2.89335797 -2 2 C-1.34 1.34 -0.68 0.68 0 0 Z " fill="#1F4365" transform="translate(484,458)"/>
<path d="M0 0 C0.66 0.33 1.32 0.66 2 1 C2.55353075 14.81776765 2.55353075 14.81776765 -1 20 C-2.43088528 17.13822943 -1.59991697 15.06624227 -1 12 C-0.34 12 0.32 12 1 12 C0.67 8.04 0.34 4.08 0 0 Z " fill="#438386" transform="translate(545,639)"/>
<path d="M0 0 C0.66 0.33 1.32 0.66 2 1 C0.88121617 2.17262904 -0.24523051 3.33795138 -1.375 4.5 C-2.00148438 5.1496875 -2.62796875 5.799375 -3.2734375 6.46875 C-5 8 -5 8 -7 8 C-7 8.99 -7 9.98 -7 11 C-7.66 11 -8.32 11 -9 11 C-8.52634425 6.73709821 -6.07761678 4.78451042 -3 2 C-2.01 1.34 -1.02 0.68 0 0 Z " fill="#203637" transform="translate(349,468)"/>
<path d="M0 0 C0.66 0 1.32 0 2 0 C1.85969405 3.01657791 1.70648535 5.23841273 -0.40234375 7.51171875 C-1.88904235 8.73256066 -3.44134898 9.87246522 -5 11 C-5.66 10.67 -6.32 10.34 -7 10 C-3.33201581 5.3201581 -3.33201581 5.3201581 -1.25 3.3125 C0.22988506 2.06070402 0.22988506 2.06070402 0 0 Z " fill="#6F7653" transform="translate(649,399)"/>
<path d="M0 0 C0 4.31618166 -2.13270348 5.92789659 -5 9 C-5.66 9 -6.32 9 -7 9 C-7.33 9.66 -7.66 10.32 -8 11 C-7.43040847 7.37386801 -6.07625466 5.74482259 -3.4375 3.25 C-2.79683594 2.63640625 -2.15617187 2.0228125 -1.49609375 1.390625 C-1.00238281 0.93171875 -0.50867188 0.4728125 0 0 Z " fill="#4FB6D1" transform="translate(481,705)"/>
<path d="M0 0 C0.99 0.33 1.98 0.66 3 1 C0.69 3.31 -1.62 5.62 -4 8 C-4.66 7.67 -5.32 7.34 -6 7 C-4.02 4.69 -2.04 2.38 0 0 Z " fill="#52CDC1" transform="translate(573,532)"/>
<path d="M0 0 C0.33 0.66 0.66 1.32 1 2 C-3.82142857 8.29464286 -3.82142857 8.29464286 -8 9 C-7.04270084 7.87411986 -6.08412105 6.7493285 -5.125 5.625 C-4.59132813 4.99851562 -4.05765625 4.37203125 -3.5078125 3.7265625 C-2.38567993 2.44163349 -1.20628025 1.20628025 0 0 Z " fill="#4C9DA0" transform="translate(483,513)"/>
</svg>
